M48
METRIC,LZ,000.000
;FILE_FORMAT=3:3
;TYPE=PLATED
;Layer: PTH_Through
;EasyEDA v6.5.44, 2024-08-12 22:27:17
;a969c8272e934fc59d291ef219c4aee1,8459dde1cedc4d0a992e2e80de75b1a7,10
;Gerber Generator version 0.2
;Holesize 1 = 1.016 mm
T01C1.016
;Holesize 2 = 1.301 mm
T02C1.301
;Holesize 3 = 1.701 mm
T03C1.701
;Holesize 4 = 3.200 mm
T04C3.200
%
G05
G90
T01
X045240Y-018034
X042700Y-018034
X040160Y-018034
X037620Y-018034
X035080Y-018034
X032540Y-018034
X030000Y-018034
X027460Y-018034
X024920Y-018034
X022380Y-018034
X019840Y-018034
X017300Y-018034
X017300Y-002794
X019840Y-002794
X022380Y-002794
X024920Y-002794
X027460Y-002794
X030000Y-002794
X032540Y-002794
X035080Y-002794
X037620Y-002794
X040160Y-002794
X042700Y-002794
X045240Y-002794
T02
X027500Y-038500
X030000Y-038500
X032500Y-038500
X027500Y-024000
X032500Y-024000
X027500Y-021500
X030000Y-021500
X032500Y-021500
T03
X035500Y-031650G85X035500Y-030350
X024500Y-031650G85X024500Y-030350
T04
X005000Y-005000
X055000Y-005000
X005000Y-055000
X055000Y-055000
M30
