G04 Layer: TopSilkscreenLayer*
G04 EasyEDA v6.5.44, 2024-08-12 22:27:17*
G04 a969c8272e934fc59d291ef219c4aee1,8459dde1cedc4d0a992e2e80de75b1a7,10*
G04 Gerber Generator version 0.2*
G04 Scale: 100 percent, Rotated: No, Reflected: No *
G04 Dimensions in millimeters *
G04 leading zeros omitted , absolute positions ,4 integer and 5 decimal *
%FSLAX45Y45*%
%MOMM*%

%ADD10C,0.1524*%
%ADD11C,0.2032*%
%ADD12C,0.2540*%

%LPD*%
G36*
X3311906Y-5092547D02*
G01*
X3294735Y-5095036D01*
X3280410Y-5102453D01*
X3268726Y-5114290D01*
X3260090Y-5130393D01*
X3257092Y-5140147D01*
X3254959Y-5150815D01*
X3253638Y-5162397D01*
X3253232Y-5174843D01*
X3277108Y-5174843D01*
X3277666Y-5160873D01*
X3279444Y-5148580D01*
X3282391Y-5138013D01*
X3286506Y-5129123D01*
X3297428Y-5117134D01*
X3311906Y-5113121D01*
X3317036Y-5113578D01*
X3321812Y-5114899D01*
X3326180Y-5117134D01*
X3330194Y-5120233D01*
X3333902Y-5124246D01*
X3337102Y-5129072D01*
X3339846Y-5134762D01*
X3342132Y-5141315D01*
X3345383Y-5156555D01*
X3346450Y-5174843D01*
X3345891Y-5188966D01*
X3344164Y-5201361D01*
X3341319Y-5211978D01*
X3337306Y-5220817D01*
X3326384Y-5232654D01*
X3311906Y-5236565D01*
X3306622Y-5236159D01*
X3301746Y-5234787D01*
X3297224Y-5232603D01*
X3293110Y-5229453D01*
X3289503Y-5225592D01*
X3286353Y-5220817D01*
X3283661Y-5215178D01*
X3281426Y-5208625D01*
X3278174Y-5193334D01*
X3277108Y-5174843D01*
X3253232Y-5174843D01*
X3253638Y-5187492D01*
X3254959Y-5199126D01*
X3257092Y-5209844D01*
X3260090Y-5219547D01*
X3268522Y-5235905D01*
X3280156Y-5247741D01*
X3294684Y-5255006D01*
X3311906Y-5257393D01*
X3328924Y-5255006D01*
X3343401Y-5247741D01*
X3355035Y-5235905D01*
X3363468Y-5219547D01*
X3366465Y-5209844D01*
X3368598Y-5199126D01*
X3369868Y-5187492D01*
X3370326Y-5174843D01*
X3369868Y-5162397D01*
X3368598Y-5150815D01*
X3366465Y-5140147D01*
X3363468Y-5130393D01*
X3354882Y-5114290D01*
X3343401Y-5102453D01*
X3328924Y-5095036D01*
G37*
G36*
X3453892Y-5092547D02*
G01*
X3436874Y-5095036D01*
X3422396Y-5102453D01*
X3410762Y-5114290D01*
X3402329Y-5130393D01*
X3399231Y-5140147D01*
X3396996Y-5150815D01*
X3395675Y-5162397D01*
X3395218Y-5174843D01*
X3419348Y-5174843D01*
X3419906Y-5160873D01*
X3421634Y-5148580D01*
X3424478Y-5138013D01*
X3428492Y-5129123D01*
X3439414Y-5117134D01*
X3453892Y-5113121D01*
X3459022Y-5113578D01*
X3463848Y-5114899D01*
X3468319Y-5117134D01*
X3472434Y-5120233D01*
X3476040Y-5124246D01*
X3479241Y-5129072D01*
X3481984Y-5134762D01*
X3484372Y-5141315D01*
X3487420Y-5156555D01*
X3488436Y-5174843D01*
X3487877Y-5188966D01*
X3486150Y-5201361D01*
X3483305Y-5211978D01*
X3479292Y-5220817D01*
X3468370Y-5232654D01*
X3453892Y-5236565D01*
X3448608Y-5236159D01*
X3443782Y-5234787D01*
X3439363Y-5232603D01*
X3435350Y-5229453D01*
X3431641Y-5225592D01*
X3428441Y-5220817D01*
X3425698Y-5215178D01*
X3423412Y-5208625D01*
X3420364Y-5193334D01*
X3419348Y-5174843D01*
X3395218Y-5174843D01*
X3395675Y-5187492D01*
X3396996Y-5199126D01*
X3399231Y-5209844D01*
X3402329Y-5219547D01*
X3410762Y-5235905D01*
X3422396Y-5247741D01*
X3436721Y-5255006D01*
X3453892Y-5257393D01*
X3471011Y-5255006D01*
X3485387Y-5247741D01*
X3497021Y-5235905D01*
X3505454Y-5219547D01*
X3508552Y-5209844D01*
X3510787Y-5199126D01*
X3512108Y-5187492D01*
X3512565Y-5174843D01*
X3512108Y-5162397D01*
X3510787Y-5150815D01*
X3508552Y-5140147D01*
X3505454Y-5130393D01*
X3497021Y-5114290D01*
X3485387Y-5102453D01*
X3470910Y-5095036D01*
G37*
G36*
X3596132Y-5092547D02*
G01*
X3578961Y-5095036D01*
X3564636Y-5102453D01*
X3552951Y-5114290D01*
X3544315Y-5130393D01*
X3541318Y-5140147D01*
X3539185Y-5150815D01*
X3537864Y-5162397D01*
X3537458Y-5174843D01*
X3561334Y-5174843D01*
X3561892Y-5160873D01*
X3563670Y-5148580D01*
X3566617Y-5138013D01*
X3570732Y-5129123D01*
X3581654Y-5117134D01*
X3596132Y-5113121D01*
X3601262Y-5113578D01*
X3606037Y-5114899D01*
X3610406Y-5117134D01*
X3614420Y-5120233D01*
X3618128Y-5124246D01*
X3621328Y-5129072D01*
X3624072Y-5134762D01*
X3626358Y-5141315D01*
X3629609Y-5156555D01*
X3630676Y-5174843D01*
X3630117Y-5188966D01*
X3628390Y-5201361D01*
X3625545Y-5211978D01*
X3621532Y-5220817D01*
X3610610Y-5232654D01*
X3596132Y-5236565D01*
X3590848Y-5236159D01*
X3585972Y-5234787D01*
X3581450Y-5232603D01*
X3577336Y-5229453D01*
X3573729Y-5225592D01*
X3570579Y-5220817D01*
X3567887Y-5215178D01*
X3565651Y-5208625D01*
X3562400Y-5193334D01*
X3561334Y-5174843D01*
X3537458Y-5174843D01*
X3537864Y-5187492D01*
X3539185Y-5199126D01*
X3541318Y-5209844D01*
X3544315Y-5219547D01*
X3552748Y-5235905D01*
X3564382Y-5247741D01*
X3578910Y-5255006D01*
X3596132Y-5257393D01*
X3613150Y-5255006D01*
X3627628Y-5247741D01*
X3639261Y-5235905D01*
X3647694Y-5219547D01*
X3650691Y-5209844D01*
X3652824Y-5199126D01*
X3654094Y-5187492D01*
X3654551Y-5174843D01*
X3654094Y-5162397D01*
X3652824Y-5150815D01*
X3650691Y-5140147D01*
X3647694Y-5130393D01*
X3639108Y-5114290D01*
X3627628Y-5102453D01*
X3613150Y-5095036D01*
G37*
G36*
X2345436Y-5094833D02*
G01*
X2345436Y-5115661D01*
X2399792Y-5115661D01*
X2405481Y-5115915D01*
X2410561Y-5116576D01*
X2415133Y-5117693D01*
X2419096Y-5119217D01*
X2422550Y-5121198D01*
X2425496Y-5123535D01*
X2427986Y-5126278D01*
X2430018Y-5129377D01*
X2431542Y-5132882D01*
X2432659Y-5136642D01*
X2433320Y-5140756D01*
X2433574Y-5145125D01*
X2433320Y-5149443D01*
X2432659Y-5153406D01*
X2431542Y-5157063D01*
X2430018Y-5160365D01*
X2427986Y-5163413D01*
X2425496Y-5166055D01*
X2422550Y-5168341D01*
X2419096Y-5170271D01*
X2415133Y-5171744D01*
X2410663Y-5172760D01*
X2405634Y-5173370D01*
X2400046Y-5173573D01*
X2369566Y-5173573D01*
X2369566Y-5115661D01*
X2345436Y-5115661D01*
X2345436Y-5254853D01*
X2369566Y-5254853D01*
X2369566Y-5194401D01*
X2402332Y-5194401D01*
X2403754Y-5194249D01*
X2436368Y-5254853D01*
X2463800Y-5254853D01*
X2428240Y-5189728D01*
X2433066Y-5188051D01*
X2443937Y-5180685D01*
X2451608Y-5170779D01*
X2456180Y-5158790D01*
X2457704Y-5145125D01*
X2456180Y-5131104D01*
X2451608Y-5118963D01*
X2443988Y-5108956D01*
X2433320Y-5101183D01*
X2419350Y-5096459D01*
X2402332Y-5094833D01*
G37*
G36*
X3189224Y-5094833D02*
G01*
X3149346Y-5120995D01*
X3149346Y-5144109D01*
X3187700Y-5118963D01*
X3188716Y-5118963D01*
X3188716Y-5254853D01*
X3212846Y-5254853D01*
X3212846Y-5094833D01*
G37*
G36*
X2949448Y-5106009D02*
G01*
X2949448Y-5134965D01*
X2931922Y-5134965D01*
X2931922Y-5153507D01*
X2949448Y-5153507D01*
X2949448Y-5224373D01*
X2949752Y-5229606D01*
X2950667Y-5234381D01*
X2952140Y-5238648D01*
X2954274Y-5242407D01*
X2956966Y-5245862D01*
X2960065Y-5248757D01*
X2963468Y-5251196D01*
X2967228Y-5253075D01*
X2971342Y-5254650D01*
X2975610Y-5255717D01*
X2979978Y-5256276D01*
X2987192Y-5256377D01*
X2991866Y-5255971D01*
X2995676Y-5255158D01*
X2999740Y-5253837D01*
X2995422Y-5234533D01*
X2992120Y-5235295D01*
X2987294Y-5235549D01*
X2983585Y-5235295D01*
X2980182Y-5234533D01*
X2978607Y-5233771D01*
X2977184Y-5232704D01*
X2975914Y-5231384D01*
X2973933Y-5227878D01*
X2973324Y-5225542D01*
X2972917Y-5222798D01*
X2972816Y-5153507D01*
X2997454Y-5153507D01*
X2997454Y-5134965D01*
X2972816Y-5134965D01*
X2972816Y-5106009D01*
G37*
G36*
X2535428Y-5133187D02*
G01*
X2519730Y-5135168D01*
X2506218Y-5141061D01*
X2495143Y-5150662D01*
X2486914Y-5163159D01*
X2481783Y-5178298D01*
X2481167Y-5184495D01*
X2503271Y-5184495D01*
X2503424Y-5182209D01*
X2504186Y-5177993D01*
X2505456Y-5173929D01*
X2507234Y-5170017D01*
X2509367Y-5166309D01*
X2511907Y-5162905D01*
X2514955Y-5159959D01*
X2518410Y-5157317D01*
X2522220Y-5155234D01*
X2526385Y-5153710D01*
X2530856Y-5152796D01*
X2535682Y-5152491D01*
X2540000Y-5152796D01*
X2544064Y-5153609D01*
X2547874Y-5154930D01*
X2551430Y-5156809D01*
X2554528Y-5159044D01*
X2557322Y-5161635D01*
X2559761Y-5164632D01*
X2561844Y-5167985D01*
X2563520Y-5171694D01*
X2564688Y-5175707D01*
X2565400Y-5179974D01*
X2565654Y-5184495D01*
X2481167Y-5184495D01*
X2480056Y-5195671D01*
X2481783Y-5213096D01*
X2486914Y-5228183D01*
X2495245Y-5240578D01*
X2506472Y-5249773D01*
X2520543Y-5255514D01*
X2536952Y-5257393D01*
X2543352Y-5257139D01*
X2549448Y-5256377D01*
X2555189Y-5255107D01*
X2560574Y-5253329D01*
X2565450Y-5251094D01*
X2569921Y-5248452D01*
X2573934Y-5245404D01*
X2577592Y-5241899D01*
X2580741Y-5238089D01*
X2583383Y-5233974D01*
X2585466Y-5229606D01*
X2586990Y-5224881D01*
X2564892Y-5220817D01*
X2563723Y-5223510D01*
X2562352Y-5225999D01*
X2560675Y-5228234D01*
X2556764Y-5232044D01*
X2554528Y-5233619D01*
X2552090Y-5234940D01*
X2546553Y-5236972D01*
X2540457Y-5237988D01*
X2537206Y-5238089D01*
X2532278Y-5237835D01*
X2527655Y-5236972D01*
X2523388Y-5235549D01*
X2519426Y-5233517D01*
X2515819Y-5231130D01*
X2512618Y-5228183D01*
X2509824Y-5224780D01*
X2507488Y-5220817D01*
X2505608Y-5216296D01*
X2504236Y-5211368D01*
X2503424Y-5206034D01*
X2503220Y-5201767D01*
X2588514Y-5201767D01*
X2588514Y-5193639D01*
X2587447Y-5178602D01*
X2584196Y-5165953D01*
X2581808Y-5160416D01*
X2579065Y-5155438D01*
X2575864Y-5151018D01*
X2572258Y-5147157D01*
X2568295Y-5143855D01*
X2564130Y-5141010D01*
X2559659Y-5138674D01*
X2554986Y-5136743D01*
X2550210Y-5135219D01*
X2545384Y-5134102D01*
X2540457Y-5133441D01*
G37*
G36*
X2671064Y-5133187D02*
G01*
X2665323Y-5133543D01*
X2659989Y-5134610D01*
X2655163Y-5136337D01*
X2650744Y-5138775D01*
X2646730Y-5141874D01*
X2643378Y-5145481D01*
X2640634Y-5149596D01*
X2638552Y-5154269D01*
X2637028Y-5154269D01*
X2637028Y-5134965D01*
X2614676Y-5134965D01*
X2614676Y-5254853D01*
X2637790Y-5254853D01*
X2637790Y-5180939D01*
X2637993Y-5177028D01*
X2638653Y-5173268D01*
X2639771Y-5169763D01*
X2641346Y-5166461D01*
X2643124Y-5163616D01*
X2645206Y-5161026D01*
X2647594Y-5158790D01*
X2650236Y-5156809D01*
X2653080Y-5155387D01*
X2656078Y-5154371D01*
X2659176Y-5153761D01*
X2662428Y-5153507D01*
X2667152Y-5153914D01*
X2671368Y-5154980D01*
X2675128Y-5156809D01*
X2678430Y-5159349D01*
X2681071Y-5162651D01*
X2683002Y-5166360D01*
X2684119Y-5170525D01*
X2684526Y-5175097D01*
X2684526Y-5254853D01*
X2707640Y-5254853D01*
X2707640Y-5178399D01*
X2708046Y-5173218D01*
X2709214Y-5168442D01*
X2711196Y-5164175D01*
X2713990Y-5160365D01*
X2717495Y-5157368D01*
X2721610Y-5155234D01*
X2726385Y-5153964D01*
X2731770Y-5153507D01*
X2736189Y-5153863D01*
X2740355Y-5154879D01*
X2744216Y-5156555D01*
X2747772Y-5158841D01*
X2750667Y-5162092D01*
X2752699Y-5166106D01*
X2753969Y-5170982D01*
X2754376Y-5176621D01*
X2754376Y-5254853D01*
X2777744Y-5254853D01*
X2777744Y-5174335D01*
X2775153Y-5156403D01*
X2767330Y-5143601D01*
X2755442Y-5135829D01*
X2740660Y-5133187D01*
X2734411Y-5133594D01*
X2728569Y-5134660D01*
X2723235Y-5136489D01*
X2718308Y-5139029D01*
X2713939Y-5142179D01*
X2710180Y-5145786D01*
X2707081Y-5149799D01*
X2704592Y-5154269D01*
X2703322Y-5154269D01*
X2701137Y-5149697D01*
X2698445Y-5145633D01*
X2695194Y-5142077D01*
X2691384Y-5139029D01*
X2687066Y-5136489D01*
X2682240Y-5134660D01*
X2676906Y-5133594D01*
G37*
G36*
X2859532Y-5133187D02*
G01*
X2843631Y-5135168D01*
X2830068Y-5141061D01*
X2818841Y-5150307D01*
X2810510Y-5162651D01*
X2805379Y-5177840D01*
X2803652Y-5195417D01*
X2827020Y-5195417D01*
X2827223Y-5189728D01*
X2827883Y-5184241D01*
X2829001Y-5179060D01*
X2830576Y-5174081D01*
X2832557Y-5169509D01*
X2834995Y-5165394D01*
X2837891Y-5161788D01*
X2841244Y-5158587D01*
X2845155Y-5156047D01*
X2849473Y-5154218D01*
X2854299Y-5153152D01*
X2859532Y-5152745D01*
X2864764Y-5153152D01*
X2869488Y-5154218D01*
X2873756Y-5156047D01*
X2877566Y-5158587D01*
X2880969Y-5161788D01*
X2883916Y-5165394D01*
X2886303Y-5169509D01*
X2888234Y-5174081D01*
X2889758Y-5179060D01*
X2890875Y-5184241D01*
X2891536Y-5189728D01*
X2891790Y-5195417D01*
X2891536Y-5201056D01*
X2890875Y-5206441D01*
X2889758Y-5211572D01*
X2888234Y-5216499D01*
X2886303Y-5221122D01*
X2883916Y-5225237D01*
X2880969Y-5228844D01*
X2877566Y-5231993D01*
X2873756Y-5234482D01*
X2869488Y-5236210D01*
X2864764Y-5237276D01*
X2859532Y-5237581D01*
X2854299Y-5237276D01*
X2849473Y-5236210D01*
X2845155Y-5234482D01*
X2841244Y-5231993D01*
X2837891Y-5228844D01*
X2834995Y-5225237D01*
X2832557Y-5221122D01*
X2830576Y-5216499D01*
X2829001Y-5211572D01*
X2827883Y-5206441D01*
X2827223Y-5201056D01*
X2827020Y-5195417D01*
X2803652Y-5195417D01*
X2805379Y-5212842D01*
X2810510Y-5227929D01*
X2818841Y-5240324D01*
X2830068Y-5249519D01*
X2843631Y-5255463D01*
X2859532Y-5257393D01*
X2875280Y-5255463D01*
X2888996Y-5249519D01*
X2900121Y-5240324D01*
X2908554Y-5227929D01*
X2913684Y-5212842D01*
X2915412Y-5195417D01*
X2913684Y-5177840D01*
X2908554Y-5162651D01*
X2900121Y-5150307D01*
X2888996Y-5141061D01*
X2875280Y-5135168D01*
G37*
G36*
X3073400Y-5133187D02*
G01*
X3057702Y-5135168D01*
X3044190Y-5141061D01*
X3033064Y-5150662D01*
X3024632Y-5163159D01*
X3019501Y-5178298D01*
X3018885Y-5184495D01*
X3041243Y-5184495D01*
X3041396Y-5182209D01*
X3042107Y-5177993D01*
X3043275Y-5173929D01*
X3044952Y-5170017D01*
X3047187Y-5166309D01*
X3049828Y-5162905D01*
X3052876Y-5159959D01*
X3056382Y-5157317D01*
X3060090Y-5155234D01*
X3064205Y-5153710D01*
X3068624Y-5152796D01*
X3073400Y-5152491D01*
X3077819Y-5152796D01*
X3081985Y-5153609D01*
X3085846Y-5154930D01*
X3089402Y-5156809D01*
X3092500Y-5159044D01*
X3095294Y-5161635D01*
X3097733Y-5164632D01*
X3099816Y-5167985D01*
X3101492Y-5171694D01*
X3102660Y-5175707D01*
X3103372Y-5179974D01*
X3103626Y-5184495D01*
X3018885Y-5184495D01*
X3017774Y-5195671D01*
X3019501Y-5213096D01*
X3024632Y-5228183D01*
X3033115Y-5240578D01*
X3044444Y-5249773D01*
X3058414Y-5255514D01*
X3074924Y-5257393D01*
X3081324Y-5257139D01*
X3087370Y-5256377D01*
X3093008Y-5255107D01*
X3098292Y-5253329D01*
X3103270Y-5251094D01*
X3107791Y-5248452D01*
X3111906Y-5245404D01*
X3115564Y-5241899D01*
X3118612Y-5238089D01*
X3121202Y-5233974D01*
X3123336Y-5229606D01*
X3124962Y-5224881D01*
X3102864Y-5220817D01*
X3101695Y-5223510D01*
X3100324Y-5225999D01*
X3098647Y-5228234D01*
X3096768Y-5230215D01*
X3094634Y-5232044D01*
X3092399Y-5233619D01*
X3087370Y-5236057D01*
X3084525Y-5236972D01*
X3078429Y-5237988D01*
X3075178Y-5238089D01*
X3070250Y-5237835D01*
X3065627Y-5236972D01*
X3061360Y-5235549D01*
X3057398Y-5233517D01*
X3053689Y-5231130D01*
X3050489Y-5228183D01*
X3047746Y-5224780D01*
X3045460Y-5220817D01*
X3043580Y-5216296D01*
X3042208Y-5211368D01*
X3041396Y-5206034D01*
X3041192Y-5201767D01*
X3126486Y-5201767D01*
X3126486Y-5193639D01*
X3125419Y-5178602D01*
X3122168Y-5165953D01*
X3119678Y-5160416D01*
X3116834Y-5155438D01*
X3113582Y-5151018D01*
X3109976Y-5147157D01*
X3106166Y-5143855D01*
X3102051Y-5141010D01*
X3097631Y-5138674D01*
X3092958Y-5136743D01*
X3088182Y-5135219D01*
X3083356Y-5134102D01*
X3078429Y-5133441D01*
G37*
G36*
X434085Y-1959254D02*
G01*
X431749Y-1959457D01*
X429615Y-1960118D01*
X427685Y-1961235D01*
X425958Y-1962810D01*
X424535Y-1964639D01*
X423468Y-1966722D01*
X422859Y-1968957D01*
X422656Y-1971395D01*
X422859Y-1973732D01*
X423468Y-1975916D01*
X424535Y-1977948D01*
X425958Y-1979828D01*
X427685Y-1981352D01*
X429615Y-1982470D01*
X431749Y-1983130D01*
X434085Y-1983384D01*
X436321Y-1983130D01*
X438404Y-1982470D01*
X440385Y-1981352D01*
X442214Y-1979828D01*
X443636Y-1977948D01*
X444703Y-1975916D01*
X445312Y-1973732D01*
X445516Y-1971395D01*
X445312Y-1968957D01*
X444703Y-1966722D01*
X443636Y-1964639D01*
X442214Y-1962810D01*
X440385Y-1961235D01*
X438404Y-1960118D01*
X436321Y-1959457D01*
G37*
G36*
X460501Y-1961997D02*
G01*
X460501Y-1981047D01*
X558800Y-1981047D01*
X558800Y-1961997D01*
G37*
G36*
X558038Y-2000402D02*
G01*
X542290Y-2003704D01*
X542798Y-2006447D01*
X543052Y-2009444D01*
X543001Y-2012035D01*
X542493Y-2014982D01*
X541426Y-2017623D01*
X539496Y-2019757D01*
X538226Y-2020671D01*
X536651Y-2021382D01*
X532587Y-2022144D01*
X475996Y-2022195D01*
X475996Y-2002129D01*
X460501Y-2002129D01*
X460501Y-2022195D01*
X437134Y-2022195D01*
X437134Y-2041245D01*
X460501Y-2041245D01*
X460501Y-2055723D01*
X475996Y-2055723D01*
X475996Y-2041245D01*
X533908Y-2041245D01*
X538175Y-2041042D01*
X542036Y-2040331D01*
X545541Y-2039112D01*
X548640Y-2037486D01*
X551383Y-2035251D01*
X553720Y-2032762D01*
X555701Y-2029917D01*
X557276Y-2026818D01*
X558596Y-2023465D01*
X559511Y-2020011D01*
X559968Y-2016455D01*
X560019Y-2010613D01*
X559663Y-2006701D01*
G37*
G36*
X558038Y-2067204D02*
G01*
X542290Y-2070760D01*
X542798Y-2073249D01*
X543052Y-2076246D01*
X543001Y-2078939D01*
X542493Y-2081885D01*
X541426Y-2084476D01*
X539496Y-2086660D01*
X536651Y-2088286D01*
X534771Y-2088845D01*
X530098Y-2089302D01*
X475996Y-2089302D01*
X475996Y-2068931D01*
X460501Y-2068931D01*
X460501Y-2089302D01*
X437134Y-2089302D01*
X437134Y-2108352D01*
X460501Y-2108352D01*
X460501Y-2122576D01*
X475996Y-2122576D01*
X475996Y-2108352D01*
X533908Y-2108352D01*
X538175Y-2108047D01*
X542036Y-2107336D01*
X545541Y-2106015D01*
X548640Y-2104237D01*
X551383Y-2102053D01*
X553720Y-2099564D01*
X555701Y-2096719D01*
X557276Y-2093620D01*
X558596Y-2090318D01*
X559511Y-2086914D01*
X559968Y-2083358D01*
X560019Y-2077415D01*
X559663Y-2073605D01*
G37*
G36*
X510032Y-2136292D02*
G01*
X495757Y-2137664D01*
X483362Y-2141829D01*
X477977Y-2144928D01*
X473201Y-2148636D01*
X469087Y-2152954D01*
X465582Y-2157831D01*
X460806Y-2168956D01*
X459232Y-2182012D01*
X475234Y-2182012D01*
X475538Y-2177643D01*
X476453Y-2173681D01*
X477926Y-2170125D01*
X480059Y-2167026D01*
X482650Y-2164283D01*
X485648Y-2161946D01*
X489000Y-2159965D01*
X492759Y-2158339D01*
X496773Y-2157120D01*
X500989Y-2156256D01*
X505409Y-2155748D01*
X510032Y-2155545D01*
X514654Y-2155748D01*
X519023Y-2156256D01*
X523290Y-2157120D01*
X527304Y-2158339D01*
X531063Y-2159965D01*
X534416Y-2161946D01*
X537413Y-2164283D01*
X540004Y-2167026D01*
X542137Y-2170125D01*
X543610Y-2173681D01*
X544525Y-2177643D01*
X544830Y-2182012D01*
X544525Y-2186228D01*
X543610Y-2190140D01*
X542137Y-2193594D01*
X540004Y-2196744D01*
X537413Y-2199538D01*
X534416Y-2201976D01*
X531063Y-2204008D01*
X527304Y-2205634D01*
X523290Y-2206853D01*
X519023Y-2207717D01*
X514654Y-2208225D01*
X510032Y-2208428D01*
X505409Y-2208225D01*
X500989Y-2207717D01*
X496773Y-2206853D01*
X492759Y-2205634D01*
X489000Y-2204008D01*
X485648Y-2201976D01*
X482650Y-2199538D01*
X480059Y-2196744D01*
X477926Y-2193594D01*
X476453Y-2190140D01*
X475538Y-2186228D01*
X475234Y-2182012D01*
X459232Y-2182012D01*
X460806Y-2194864D01*
X465582Y-2206142D01*
X469087Y-2210917D01*
X473201Y-2215184D01*
X477977Y-2218944D01*
X483362Y-2222144D01*
X495757Y-2226310D01*
X510032Y-2227681D01*
X524306Y-2226310D01*
X536702Y-2222144D01*
X542086Y-2218944D01*
X546862Y-2215184D01*
X550976Y-2210917D01*
X554482Y-2206142D01*
X559257Y-2194864D01*
X560832Y-2182012D01*
X559257Y-2168956D01*
X554482Y-2157831D01*
X550976Y-2152954D01*
X546862Y-2148636D01*
X542086Y-2144928D01*
X536702Y-2141829D01*
X524306Y-2137664D01*
G37*
G36*
X427990Y-2250592D02*
G01*
X427990Y-2269642D01*
X476504Y-2269642D01*
X476504Y-2270912D01*
X473201Y-2272842D01*
X469392Y-2275687D01*
X467410Y-2277414D01*
X465582Y-2279396D01*
X463854Y-2281732D01*
X462280Y-2284323D01*
X460959Y-2287371D01*
X459993Y-2290826D01*
X459420Y-2295042D01*
X475488Y-2295042D01*
X475742Y-2290978D01*
X476554Y-2287270D01*
X477926Y-2283866D01*
X479806Y-2280818D01*
X482193Y-2278176D01*
X484936Y-2275840D01*
X488137Y-2273858D01*
X491743Y-2272131D01*
X495706Y-2270912D01*
X500075Y-2270048D01*
X504748Y-2269540D01*
X509778Y-2269337D01*
X514705Y-2269540D01*
X519379Y-2270048D01*
X523748Y-2270912D01*
X527812Y-2272131D01*
X531520Y-2273858D01*
X534822Y-2275890D01*
X537616Y-2278278D01*
X540004Y-2281021D01*
X541883Y-2284018D01*
X543255Y-2287320D01*
X544068Y-2290978D01*
X544322Y-2295042D01*
X544017Y-2299055D01*
X543204Y-2302764D01*
X541731Y-2306167D01*
X539750Y-2309215D01*
X537260Y-2311958D01*
X534365Y-2314295D01*
X531012Y-2316276D01*
X527304Y-2317902D01*
X523240Y-2319223D01*
X518972Y-2320188D01*
X514502Y-2320747D01*
X509778Y-2320899D01*
X504951Y-2320747D01*
X500430Y-2320188D01*
X496214Y-2319223D01*
X492251Y-2317902D01*
X488645Y-2316276D01*
X485393Y-2314295D01*
X482549Y-2311958D01*
X480059Y-2309215D01*
X478078Y-2306269D01*
X476605Y-2302865D01*
X475792Y-2299157D01*
X475488Y-2295042D01*
X459420Y-2295042D01*
X459232Y-2299055D01*
X459638Y-2304796D01*
X460756Y-2310180D01*
X462686Y-2315311D01*
X465328Y-2320137D01*
X468680Y-2324608D01*
X472693Y-2328519D01*
X477316Y-2331974D01*
X482600Y-2334920D01*
X495096Y-2338882D01*
X509778Y-2340254D01*
X524611Y-2338882D01*
X537210Y-2334920D01*
X542493Y-2331974D01*
X547166Y-2328621D01*
X551281Y-2324760D01*
X554736Y-2320442D01*
X557377Y-2315565D01*
X559308Y-2310384D01*
X560425Y-2304897D01*
X560832Y-2299055D01*
X560628Y-2294839D01*
X560070Y-2291029D01*
X559104Y-2287625D01*
X557784Y-2284628D01*
X556209Y-2281936D01*
X552653Y-2277516D01*
X548690Y-2274163D01*
X543560Y-2270912D01*
X543560Y-2269134D01*
X558800Y-2269134D01*
X558800Y-2250592D01*
G37*
G36*
X459485Y-2352395D02*
G01*
X459232Y-2360523D01*
X459536Y-2364740D01*
X460400Y-2368753D01*
X461822Y-2372512D01*
X463804Y-2376068D01*
X466293Y-2379218D01*
X469188Y-2381910D01*
X472541Y-2384044D01*
X476250Y-2385720D01*
X476250Y-2386736D01*
X460501Y-2386736D01*
X460501Y-2404973D01*
X558800Y-2404973D01*
X558800Y-2385923D01*
X498856Y-2385923D01*
X495757Y-2385771D01*
X492810Y-2385161D01*
X490067Y-2384247D01*
X487426Y-2382926D01*
X485038Y-2381250D01*
X482904Y-2379268D01*
X481076Y-2377033D01*
X479551Y-2374544D01*
X478332Y-2371750D01*
X477469Y-2368854D01*
X476910Y-2365806D01*
X476808Y-2361082D01*
X477774Y-2352395D01*
G37*
G36*
X493522Y-2430373D02*
G01*
X488442Y-2430627D01*
X483819Y-2431338D01*
X479653Y-2432558D01*
X475996Y-2434234D01*
X472897Y-2436215D01*
X470154Y-2438450D01*
X467817Y-2440940D01*
X465835Y-2443581D01*
X464108Y-2446578D01*
X462686Y-2449626D01*
X461568Y-2452776D01*
X460095Y-2459329D01*
X459333Y-2465527D01*
X459384Y-2472893D01*
X459892Y-2477211D01*
X460654Y-2481427D01*
X461772Y-2485542D01*
X463245Y-2489454D01*
X465074Y-2493111D01*
X467309Y-2496566D01*
X469900Y-2499715D01*
X472897Y-2502611D01*
X476300Y-2505151D01*
X480161Y-2507335D01*
X484378Y-2509113D01*
X488442Y-2491079D01*
X485952Y-2489860D01*
X483565Y-2488184D01*
X481228Y-2486050D01*
X479043Y-2483510D01*
X477164Y-2480411D01*
X475792Y-2476855D01*
X474980Y-2472842D01*
X474726Y-2468270D01*
X475030Y-2463952D01*
X475894Y-2460193D01*
X477316Y-2456942D01*
X479298Y-2454249D01*
X481939Y-2452268D01*
X485038Y-2450846D01*
X488543Y-2449982D01*
X492759Y-2449728D01*
X523493Y-2449728D01*
X526237Y-2449880D01*
X528980Y-2450388D01*
X531571Y-2451252D01*
X534162Y-2452471D01*
X536600Y-2454198D01*
X538784Y-2456180D01*
X540766Y-2458516D01*
X542544Y-2461107D01*
X543864Y-2464206D01*
X544830Y-2467457D01*
X545388Y-2471013D01*
X545592Y-2474823D01*
X545388Y-2478735D01*
X544677Y-2482189D01*
X543610Y-2485339D01*
X542036Y-2488031D01*
X540054Y-2490368D01*
X537565Y-2492044D01*
X534720Y-2493060D01*
X531368Y-2493365D01*
X528929Y-2493213D01*
X526745Y-2492705D01*
X524764Y-2491841D01*
X522985Y-2490571D01*
X521563Y-2489200D01*
X520293Y-2487523D01*
X518414Y-2483510D01*
X516890Y-2478633D01*
X515874Y-2473299D01*
X513791Y-2458364D01*
X512165Y-2452217D01*
X511301Y-2450338D01*
X510793Y-2449728D01*
X492759Y-2449728D01*
X494385Y-2449880D01*
X495808Y-2450338D01*
X496976Y-2451150D01*
X497840Y-2452268D01*
X499160Y-2455468D01*
X500126Y-2460142D01*
X501650Y-2474620D01*
X504190Y-2488031D01*
X506120Y-2494534D01*
X507339Y-2497480D01*
X508762Y-2500223D01*
X510540Y-2502865D01*
X512572Y-2505202D01*
X514858Y-2507183D01*
X517398Y-2508910D01*
X520242Y-2510332D01*
X523493Y-2511348D01*
X527100Y-2511958D01*
X531114Y-2512212D01*
X535736Y-2511907D01*
X540004Y-2511094D01*
X543864Y-2509774D01*
X547370Y-2507894D01*
X550468Y-2505405D01*
X553212Y-2502611D01*
X555548Y-2499461D01*
X557530Y-2495905D01*
X559104Y-2491994D01*
X560222Y-2487879D01*
X560882Y-2483510D01*
X561086Y-2478887D01*
X560933Y-2474976D01*
X560476Y-2471369D01*
X559663Y-2468016D01*
X557326Y-2462174D01*
X555955Y-2459685D01*
X554380Y-2457450D01*
X550926Y-2453792D01*
X547217Y-2450998D01*
X545338Y-2449931D01*
X545338Y-2449220D01*
X558800Y-2449220D01*
X558800Y-2430373D01*
G37*
G36*
X496316Y-2532989D02*
G01*
X490474Y-2533294D01*
X485140Y-2534107D01*
X480314Y-2535428D01*
X475996Y-2537307D01*
X472084Y-2539593D01*
X468680Y-2542286D01*
X465835Y-2545435D01*
X463550Y-2549042D01*
X461670Y-2552852D01*
X460298Y-2557068D01*
X459485Y-2561640D01*
X459232Y-2566568D01*
X459536Y-2571800D01*
X460451Y-2576576D01*
X461924Y-2580944D01*
X464058Y-2584805D01*
X466648Y-2588260D01*
X469595Y-2591155D01*
X472846Y-2593594D01*
X476504Y-2595473D01*
X476504Y-2596794D01*
X460501Y-2596794D01*
X460501Y-2615031D01*
X558800Y-2615031D01*
X558800Y-2595981D01*
X500380Y-2595981D01*
X496671Y-2595829D01*
X493268Y-2595219D01*
X490067Y-2594305D01*
X487172Y-2592984D01*
X484530Y-2591308D01*
X482295Y-2589377D01*
X480364Y-2587244D01*
X478790Y-2584805D01*
X477570Y-2582214D01*
X476707Y-2579370D01*
X476148Y-2576372D01*
X475996Y-2573121D01*
X476351Y-2568448D01*
X477469Y-2564333D01*
X479298Y-2560726D01*
X481838Y-2557678D01*
X485190Y-2555341D01*
X489051Y-2553665D01*
X493572Y-2552649D01*
X498601Y-2552344D01*
X558800Y-2552344D01*
X558800Y-2532989D01*
G37*
G36*
X459485Y-2631592D02*
G01*
X459232Y-2635605D01*
X459232Y-2639720D01*
X459536Y-2643886D01*
X460400Y-2647899D01*
X461822Y-2651658D01*
X463804Y-2655163D01*
X466293Y-2658364D01*
X469188Y-2661005D01*
X472541Y-2663190D01*
X476250Y-2664815D01*
X476250Y-2665831D01*
X460501Y-2665831D01*
X460501Y-2684170D01*
X558800Y-2684170D01*
X558800Y-2665120D01*
X498856Y-2665120D01*
X495757Y-2664917D01*
X492810Y-2664358D01*
X490067Y-2663393D01*
X487426Y-2662021D01*
X485038Y-2660396D01*
X482904Y-2658414D01*
X481076Y-2656179D01*
X479551Y-2653639D01*
X478332Y-2650896D01*
X477469Y-2648000D01*
X476910Y-2644952D01*
X476808Y-2640228D01*
X477774Y-2631592D01*
G37*
G36*
X508762Y-2705455D02*
G01*
X502310Y-2705709D01*
X496316Y-2706370D01*
X490829Y-2707487D01*
X485901Y-2709062D01*
X481431Y-2710992D01*
X477418Y-2713278D01*
X473811Y-2715920D01*
X470662Y-2718968D01*
X467918Y-2722118D01*
X465582Y-2725470D01*
X463600Y-2729077D01*
X462026Y-2732887D01*
X460806Y-2736748D01*
X459943Y-2740710D01*
X459384Y-2744774D01*
X459232Y-2748889D01*
X475234Y-2748889D01*
X475437Y-2745232D01*
X476046Y-2741879D01*
X477113Y-2738780D01*
X478535Y-2735986D01*
X480364Y-2733344D01*
X482447Y-2731008D01*
X484936Y-2729026D01*
X487680Y-2727299D01*
X490728Y-2725978D01*
X493979Y-2725013D01*
X497433Y-2724454D01*
X501142Y-2724302D01*
X501142Y-2775204D01*
X499313Y-2775102D01*
X495808Y-2774492D01*
X492455Y-2773476D01*
X489204Y-2772054D01*
X486308Y-2770225D01*
X483616Y-2768092D01*
X481228Y-2765653D01*
X479043Y-2762910D01*
X477367Y-2759710D01*
X476199Y-2756357D01*
X475488Y-2752750D01*
X475234Y-2748889D01*
X459232Y-2748889D01*
X460857Y-2761742D01*
X465835Y-2772765D01*
X469341Y-2777591D01*
X473506Y-2781858D01*
X478383Y-2785618D01*
X483870Y-2788818D01*
X496163Y-2792984D01*
X510285Y-2794355D01*
X524560Y-2792984D01*
X536956Y-2788818D01*
X542340Y-2785567D01*
X547065Y-2781808D01*
X551078Y-2777439D01*
X554482Y-2772562D01*
X559257Y-2761132D01*
X560832Y-2747670D01*
X560628Y-2742438D01*
X560019Y-2737561D01*
X558952Y-2732938D01*
X557530Y-2728620D01*
X555701Y-2724454D01*
X553516Y-2720695D01*
X551027Y-2717342D01*
X548132Y-2714345D01*
X545084Y-2711805D01*
X541731Y-2709672D01*
X538073Y-2707995D01*
X534162Y-2706776D01*
X531114Y-2724810D01*
X533298Y-2725775D01*
X537108Y-2728315D01*
X538734Y-2729839D01*
X541375Y-2733446D01*
X542442Y-2735376D01*
X544068Y-2739796D01*
X544982Y-2744774D01*
X545084Y-2747365D01*
X544830Y-2751429D01*
X544118Y-2755290D01*
X542950Y-2758846D01*
X541274Y-2762097D01*
X539292Y-2764993D01*
X536905Y-2767584D01*
X534060Y-2769819D01*
X530860Y-2771749D01*
X527253Y-2773324D01*
X523240Y-2774442D01*
X518871Y-2775102D01*
X515366Y-2775254D01*
X515366Y-2705455D01*
G37*
G36*
X509778Y-2811373D02*
G01*
X495096Y-2812745D01*
X482600Y-2816707D01*
X477316Y-2819654D01*
X472693Y-2823057D01*
X468680Y-2827020D01*
X465328Y-2831439D01*
X462686Y-2836214D01*
X460756Y-2841294D01*
X459587Y-2846730D01*
X459232Y-2852521D01*
X459423Y-2856636D01*
X475488Y-2856636D01*
X475792Y-2852470D01*
X476605Y-2848660D01*
X478078Y-2845206D01*
X480059Y-2842107D01*
X482549Y-2839516D01*
X485393Y-2837180D01*
X488645Y-2835198D01*
X492251Y-2833471D01*
X496214Y-2832252D01*
X500430Y-2831388D01*
X504951Y-2830880D01*
X509778Y-2830728D01*
X514502Y-2830880D01*
X518972Y-2831388D01*
X523240Y-2832252D01*
X527304Y-2833471D01*
X531012Y-2835198D01*
X534365Y-2837230D01*
X537260Y-2839618D01*
X539750Y-2842412D01*
X541731Y-2845358D01*
X543153Y-2848762D01*
X544017Y-2852470D01*
X544322Y-2856636D01*
X544068Y-2860649D01*
X543255Y-2864307D01*
X541883Y-2867609D01*
X540004Y-2870555D01*
X537616Y-2873197D01*
X534822Y-2875534D01*
X531520Y-2877515D01*
X527812Y-2879242D01*
X523748Y-2880563D01*
X519379Y-2881477D01*
X514705Y-2882087D01*
X509778Y-2882239D01*
X504748Y-2882087D01*
X500075Y-2881579D01*
X495706Y-2880715D01*
X491743Y-2879445D01*
X488137Y-2877769D01*
X484936Y-2875737D01*
X482193Y-2873349D01*
X479806Y-2870555D01*
X477926Y-2867609D01*
X476554Y-2864307D01*
X475742Y-2860649D01*
X475488Y-2856636D01*
X459423Y-2856636D01*
X459993Y-2860802D01*
X460959Y-2864256D01*
X462280Y-2867304D01*
X463854Y-2869895D01*
X465582Y-2872232D01*
X467410Y-2874213D01*
X471373Y-2877464D01*
X476504Y-2880715D01*
X476504Y-2882036D01*
X427990Y-2882036D01*
X427990Y-2901086D01*
X558800Y-2901086D01*
X558800Y-2882239D01*
X543560Y-2882239D01*
X543560Y-2880715D01*
X546862Y-2878632D01*
X550672Y-2875889D01*
X552653Y-2874111D01*
X556209Y-2869692D01*
X557784Y-2866999D01*
X559104Y-2864002D01*
X560070Y-2860548D01*
X560628Y-2856636D01*
X560832Y-2852318D01*
X560476Y-2846578D01*
X559308Y-2841193D01*
X557377Y-2836062D01*
X554736Y-2831236D01*
X551281Y-2826867D01*
X547166Y-2823006D01*
X542493Y-2819654D01*
X537210Y-2816707D01*
X524611Y-2812745D01*
G37*
G36*
X530352Y-2923387D02*
G01*
X525373Y-2923844D01*
X520954Y-2925114D01*
X516991Y-2927248D01*
X513588Y-2930245D01*
X510489Y-2934004D01*
X507847Y-2938576D01*
X505663Y-2944012D01*
X499160Y-2969869D01*
X498043Y-2973070D01*
X496722Y-2975711D01*
X495300Y-2977794D01*
X493674Y-2979318D01*
X491794Y-2980436D01*
X489712Y-2981096D01*
X487426Y-2981299D01*
X484733Y-2980994D01*
X482295Y-2979978D01*
X480059Y-2978302D01*
X478028Y-2975965D01*
X476453Y-2973019D01*
X475335Y-2969768D01*
X474675Y-2966161D01*
X474472Y-2962249D01*
X474573Y-2959455D01*
X475589Y-2954528D01*
X477469Y-2950565D01*
X478586Y-2948940D01*
X481330Y-2946247D01*
X484428Y-2944114D01*
X487680Y-2942742D01*
X484632Y-2925470D01*
X479196Y-2927350D01*
X474268Y-2930042D01*
X469900Y-2933446D01*
X466090Y-2937662D01*
X460959Y-2948432D01*
X459232Y-2962554D01*
X459485Y-2967939D01*
X460197Y-2973019D01*
X461365Y-2977743D01*
X463042Y-2982112D01*
X465023Y-2986176D01*
X467359Y-2989783D01*
X470103Y-2992882D01*
X473201Y-2995523D01*
X476605Y-2997657D01*
X480314Y-2999181D01*
X484276Y-3000095D01*
X488442Y-3000349D01*
X493420Y-2999994D01*
X497941Y-2998774D01*
X502056Y-2996793D01*
X505714Y-2993999D01*
X508914Y-2990291D01*
X511606Y-2985668D01*
X513842Y-2980131D01*
X515620Y-2973679D01*
X520293Y-2953715D01*
X521360Y-2950921D01*
X522579Y-2948533D01*
X524001Y-2946552D01*
X525729Y-2945079D01*
X527608Y-2944063D01*
X529691Y-2943453D01*
X531876Y-2943199D01*
X534568Y-2943555D01*
X537057Y-2944622D01*
X539394Y-2946349D01*
X541528Y-2948787D01*
X543204Y-2951835D01*
X544372Y-2955340D01*
X545084Y-2959354D01*
X545338Y-2963773D01*
X545134Y-2967888D01*
X544423Y-2971596D01*
X543356Y-2974898D01*
X541782Y-2977794D01*
X539648Y-2980232D01*
X537159Y-2982214D01*
X534212Y-2983788D01*
X530860Y-2984855D01*
X533654Y-3003397D01*
X545134Y-2998927D01*
X553720Y-2990494D01*
X559054Y-2978556D01*
X560832Y-2963570D01*
X560578Y-2957880D01*
X559816Y-2952496D01*
X558546Y-2947466D01*
X556768Y-2942742D01*
X554685Y-2938373D01*
X552196Y-2934563D01*
X549351Y-2931312D01*
X546100Y-2928518D01*
X542544Y-2926283D01*
X538734Y-2924657D01*
X534670Y-2923743D01*
G37*
G36*
X421640Y-3015386D02*
G01*
X421640Y-3032404D01*
X578612Y-3074568D01*
X578612Y-3057499D01*
G37*
G36*
X493014Y-3090773D02*
G01*
X478129Y-3092907D01*
X467614Y-3099155D01*
X463956Y-3103676D01*
X461314Y-3108807D01*
X459740Y-3114598D01*
X459232Y-3120999D01*
X459536Y-3126181D01*
X460451Y-3130905D01*
X461924Y-3135325D01*
X464058Y-3139287D01*
X466547Y-3142843D01*
X469442Y-3145942D01*
X472795Y-3148431D01*
X476504Y-3150463D01*
X476504Y-3151479D01*
X472795Y-3153359D01*
X469442Y-3155645D01*
X466547Y-3158337D01*
X464058Y-3161436D01*
X461924Y-3164941D01*
X460451Y-3168853D01*
X459536Y-3173171D01*
X459232Y-3177895D01*
X459536Y-3182569D01*
X460400Y-3186938D01*
X461822Y-3190951D01*
X463804Y-3194710D01*
X466293Y-3197860D01*
X469239Y-3200603D01*
X472643Y-3202838D01*
X476504Y-3204565D01*
X476504Y-3205886D01*
X460501Y-3205886D01*
X460501Y-3224123D01*
X558800Y-3224123D01*
X558800Y-3205073D01*
X498348Y-3205073D01*
X495147Y-3204921D01*
X492150Y-3204413D01*
X489305Y-3203549D01*
X486664Y-3202279D01*
X484276Y-3200806D01*
X482142Y-3199079D01*
X480314Y-3197098D01*
X477469Y-3192627D01*
X476504Y-3190189D01*
X475945Y-3187649D01*
X475742Y-3185007D01*
X476046Y-3181197D01*
X476961Y-3177743D01*
X478434Y-3174695D01*
X480568Y-3172104D01*
X483260Y-3169869D01*
X486359Y-3168294D01*
X489762Y-3167329D01*
X493522Y-3166973D01*
X558800Y-3166973D01*
X558800Y-3147923D01*
X496316Y-3147923D01*
X491947Y-3147618D01*
X488086Y-3146653D01*
X484581Y-3145078D01*
X481584Y-3142894D01*
X479043Y-3139948D01*
X477215Y-3136595D01*
X476097Y-3132734D01*
X475742Y-3128365D01*
X476046Y-3124708D01*
X476859Y-3121304D01*
X478332Y-3118104D01*
X480314Y-3115157D01*
X482955Y-3112871D01*
X486206Y-3111195D01*
X490169Y-3110179D01*
X494792Y-3109823D01*
X558800Y-3109823D01*
X558800Y-3090773D01*
G37*
G36*
X510032Y-3245510D02*
G01*
X495757Y-3246882D01*
X483362Y-3251047D01*
X477977Y-3254248D01*
X473201Y-3258007D01*
X469087Y-3262274D01*
X465582Y-3267049D01*
X460806Y-3278327D01*
X459232Y-3291179D01*
X475234Y-3291179D01*
X475538Y-3286963D01*
X476453Y-3283102D01*
X477926Y-3279597D01*
X480059Y-3276447D01*
X482650Y-3273653D01*
X485648Y-3271215D01*
X489000Y-3269183D01*
X492759Y-3267557D01*
X496773Y-3266338D01*
X500989Y-3265474D01*
X505409Y-3264966D01*
X510032Y-3264763D01*
X514654Y-3264966D01*
X519023Y-3265474D01*
X523290Y-3266338D01*
X527304Y-3267557D01*
X531063Y-3269183D01*
X534416Y-3271215D01*
X537413Y-3273653D01*
X540004Y-3276447D01*
X542137Y-3279597D01*
X543610Y-3283102D01*
X544525Y-3286963D01*
X544830Y-3291179D01*
X544525Y-3295497D01*
X543610Y-3299409D01*
X542137Y-3302965D01*
X540004Y-3306165D01*
X537413Y-3308908D01*
X534416Y-3311245D01*
X531063Y-3313226D01*
X527304Y-3314852D01*
X523290Y-3316071D01*
X519023Y-3316935D01*
X514654Y-3317443D01*
X510032Y-3317595D01*
X505409Y-3317443D01*
X500989Y-3316935D01*
X496773Y-3316071D01*
X492759Y-3314852D01*
X489000Y-3313226D01*
X485648Y-3311245D01*
X482650Y-3308908D01*
X480059Y-3306165D01*
X477926Y-3302965D01*
X476453Y-3299409D01*
X475538Y-3295497D01*
X475234Y-3291179D01*
X459232Y-3291179D01*
X460806Y-3304235D01*
X465582Y-3315360D01*
X469087Y-3320237D01*
X473201Y-3324555D01*
X477977Y-3328263D01*
X483362Y-3331362D01*
X495757Y-3335528D01*
X510032Y-3336899D01*
X524306Y-3335528D01*
X536702Y-3331362D01*
X542086Y-3328263D01*
X546862Y-3324555D01*
X550976Y-3320237D01*
X554482Y-3315360D01*
X559257Y-3304235D01*
X560832Y-3291179D01*
X559257Y-3278327D01*
X554482Y-3267049D01*
X550976Y-3262274D01*
X546862Y-3258007D01*
X542086Y-3254248D01*
X536702Y-3251047D01*
X524306Y-3246882D01*
G37*
G36*
X492251Y-3353155D02*
G01*
X487476Y-3353968D01*
X483006Y-3355289D01*
X478840Y-3357118D01*
X474980Y-3359505D01*
X471525Y-3362401D01*
X468426Y-3365754D01*
X465785Y-3369513D01*
X463550Y-3373729D01*
X461670Y-3378250D01*
X460298Y-3383026D01*
X459485Y-3388156D01*
X459232Y-3393592D01*
X460857Y-3406597D01*
X465835Y-3417671D01*
X469341Y-3422599D01*
X473456Y-3426917D01*
X478231Y-3430625D01*
X483616Y-3433673D01*
X496062Y-3437890D01*
X510032Y-3439312D01*
X524103Y-3437890D01*
X536448Y-3433673D01*
X541832Y-3430727D01*
X546608Y-3427069D01*
X550722Y-3422853D01*
X554228Y-3417976D01*
X559155Y-3406749D01*
X560832Y-3393592D01*
X560578Y-3387902D01*
X559765Y-3382619D01*
X558393Y-3377742D01*
X556514Y-3373221D01*
X554177Y-3369157D01*
X551434Y-3365449D01*
X548335Y-3362147D01*
X544830Y-3359302D01*
X540918Y-3356965D01*
X536752Y-3355238D01*
X532384Y-3353917D01*
X527812Y-3353155D01*
X527812Y-3371697D01*
X530352Y-3372459D01*
X532688Y-3373424D01*
X534822Y-3374644D01*
X536702Y-3376015D01*
X540054Y-3379419D01*
X541426Y-3381349D01*
X542544Y-3383381D01*
X544068Y-3388156D01*
X544576Y-3393287D01*
X544322Y-3397250D01*
X543509Y-3400907D01*
X542137Y-3404362D01*
X540258Y-3407562D01*
X537870Y-3410305D01*
X535127Y-3412744D01*
X531926Y-3414877D01*
X528320Y-3416655D01*
X524205Y-3418128D01*
X519734Y-3419144D01*
X514959Y-3419754D01*
X509778Y-3419957D01*
X504647Y-3419754D01*
X499872Y-3419144D01*
X495503Y-3418128D01*
X491490Y-3416655D01*
X487883Y-3414877D01*
X484682Y-3412693D01*
X481939Y-3410153D01*
X479551Y-3407257D01*
X477774Y-3404209D01*
X476504Y-3400856D01*
X475742Y-3397250D01*
X475488Y-3393287D01*
X475792Y-3388969D01*
X476707Y-3385108D01*
X478180Y-3381756D01*
X480314Y-3378860D01*
X482955Y-3376320D01*
X485851Y-3374237D01*
X488950Y-3372713D01*
X492251Y-3371697D01*
G37*
G36*
X547116Y-3460394D02*
G01*
X544677Y-3460597D01*
X542340Y-3461308D01*
X540207Y-3462528D01*
X538226Y-3464204D01*
X536549Y-3466185D01*
X535381Y-3468319D01*
X534670Y-3470605D01*
X534416Y-3473094D01*
X534670Y-3475634D01*
X535381Y-3478022D01*
X536549Y-3480206D01*
X538226Y-3482187D01*
X540207Y-3483864D01*
X542340Y-3485083D01*
X544677Y-3485794D01*
X547116Y-3485997D01*
X549706Y-3485794D01*
X552043Y-3485083D01*
X554278Y-3483864D01*
X556260Y-3482187D01*
X557936Y-3480206D01*
X559104Y-3478022D01*
X559816Y-3475634D01*
X560070Y-3473094D01*
X559968Y-3471418D01*
X559054Y-3468268D01*
X557326Y-3465372D01*
X555040Y-3463086D01*
X553720Y-3462121D01*
X550570Y-3460800D01*
G37*
G36*
X509778Y-3507079D02*
G01*
X495096Y-3508451D01*
X482600Y-3512413D01*
X477316Y-3515360D01*
X472693Y-3518763D01*
X468680Y-3522726D01*
X465328Y-3527145D01*
X462686Y-3532022D01*
X460756Y-3537204D01*
X459587Y-3542690D01*
X459232Y-3548481D01*
X459421Y-3552545D01*
X475488Y-3552545D01*
X475792Y-3548430D01*
X476605Y-3544620D01*
X478078Y-3541166D01*
X480059Y-3538118D01*
X482549Y-3535375D01*
X485393Y-3532987D01*
X488645Y-3531057D01*
X492251Y-3529431D01*
X496214Y-3528110D01*
X500430Y-3527196D01*
X504951Y-3526586D01*
X509778Y-3526434D01*
X514502Y-3526586D01*
X518972Y-3527145D01*
X523240Y-3528110D01*
X527304Y-3529431D01*
X531012Y-3531158D01*
X534365Y-3533140D01*
X537260Y-3535476D01*
X539750Y-3538118D01*
X541731Y-3541166D01*
X543153Y-3544620D01*
X544017Y-3548430D01*
X544322Y-3552545D01*
X544068Y-3556508D01*
X543255Y-3560114D01*
X541883Y-3563467D01*
X540004Y-3566515D01*
X537616Y-3569157D01*
X534822Y-3571494D01*
X531520Y-3573475D01*
X527812Y-3575202D01*
X523748Y-3576523D01*
X519379Y-3577488D01*
X514705Y-3578047D01*
X509778Y-3578199D01*
X504748Y-3578047D01*
X500075Y-3577488D01*
X495706Y-3576523D01*
X491743Y-3575202D01*
X488137Y-3573475D01*
X484936Y-3571494D01*
X482193Y-3569157D01*
X479806Y-3566515D01*
X477926Y-3563467D01*
X476554Y-3560114D01*
X475742Y-3556508D01*
X475488Y-3552545D01*
X459421Y-3552545D01*
X459993Y-3556762D01*
X460959Y-3560216D01*
X462280Y-3563213D01*
X463854Y-3565804D01*
X467410Y-3570122D01*
X471373Y-3573322D01*
X476504Y-3576726D01*
X476504Y-3577742D01*
X427990Y-3577742D01*
X427990Y-3596792D01*
X558800Y-3596792D01*
X558800Y-3578199D01*
X543560Y-3578199D01*
X543560Y-3576726D01*
X546862Y-3574542D01*
X552653Y-3569919D01*
X554482Y-3567887D01*
X556209Y-3565499D01*
X557784Y-3562705D01*
X559104Y-3559708D01*
X560070Y-3556304D01*
X560628Y-3552494D01*
X560832Y-3548278D01*
X560476Y-3542436D01*
X559308Y-3537000D01*
X557377Y-3531920D01*
X554736Y-3527145D01*
X551281Y-3522726D01*
X547166Y-3518763D01*
X542493Y-3515360D01*
X537210Y-3512413D01*
X524611Y-3508451D01*
G37*
G36*
X460501Y-3623970D02*
G01*
X460501Y-3643223D01*
X518159Y-3643223D01*
X522173Y-3643477D01*
X525780Y-3644137D01*
X529031Y-3645255D01*
X531876Y-3646779D01*
X534365Y-3648710D01*
X536600Y-3650792D01*
X538429Y-3653129D01*
X540004Y-3655720D01*
X541223Y-3658362D01*
X542086Y-3661054D01*
X542645Y-3663696D01*
X542798Y-3666337D01*
X542442Y-3670604D01*
X541274Y-3674414D01*
X539394Y-3677818D01*
X536702Y-3680815D01*
X533501Y-3683152D01*
X529793Y-3684828D01*
X525526Y-3685844D01*
X520700Y-3686149D01*
X460501Y-3686149D01*
X460501Y-3705504D01*
X522985Y-3705504D01*
X528828Y-3705199D01*
X534212Y-3704386D01*
X539140Y-3703065D01*
X543560Y-3701186D01*
X547370Y-3698951D01*
X550722Y-3696360D01*
X553618Y-3693363D01*
X556006Y-3690010D01*
X557784Y-3686149D01*
X559054Y-3682085D01*
X559816Y-3677767D01*
X560070Y-3673195D01*
X559765Y-3667861D01*
X558800Y-3662984D01*
X557225Y-3658615D01*
X554990Y-3654704D01*
X552145Y-3651250D01*
X549046Y-3648252D01*
X545541Y-3645763D01*
X541782Y-3643731D01*
X541782Y-3642715D01*
X558800Y-3642715D01*
X558800Y-3623970D01*
G37*
G36*
X496316Y-3730904D02*
G01*
X490474Y-3731158D01*
X485089Y-3731971D01*
X480161Y-3733292D01*
X475742Y-3735171D01*
X471932Y-3737457D01*
X468630Y-3740150D01*
X465835Y-3743299D01*
X463550Y-3746855D01*
X461670Y-3750868D01*
X460298Y-3755136D01*
X459485Y-3759758D01*
X459232Y-3764686D01*
X459536Y-3770122D01*
X460451Y-3774998D01*
X461924Y-3779367D01*
X464058Y-3783228D01*
X466547Y-3786530D01*
X469442Y-3789375D01*
X472795Y-3791712D01*
X476504Y-3793642D01*
X476504Y-3794912D01*
X427990Y-3794912D01*
X427990Y-3813657D01*
X558800Y-3813657D01*
X558800Y-3794607D01*
X500380Y-3794607D01*
X496671Y-3794455D01*
X493268Y-3793896D01*
X490067Y-3792931D01*
X487172Y-3791610D01*
X484530Y-3789934D01*
X482295Y-3787952D01*
X480364Y-3785717D01*
X478790Y-3783228D01*
X477570Y-3780434D01*
X476707Y-3777487D01*
X476148Y-3774338D01*
X475996Y-3771036D01*
X476351Y-3766312D01*
X477469Y-3762197D01*
X479298Y-3758590D01*
X481838Y-3755542D01*
X485190Y-3753205D01*
X489051Y-3751529D01*
X493572Y-3750513D01*
X498601Y-3750157D01*
X558800Y-3750157D01*
X558800Y-3730904D01*
G37*
G36*
X558038Y-3833012D02*
G01*
X542290Y-3836568D01*
X542798Y-3839057D01*
X543052Y-3842054D01*
X543001Y-3844747D01*
X542493Y-3847693D01*
X541426Y-3850233D01*
X539496Y-3852367D01*
X536651Y-3854094D01*
X534771Y-3854653D01*
X530098Y-3855110D01*
X475996Y-3855110D01*
X475996Y-3834739D01*
X460501Y-3834739D01*
X460501Y-3855110D01*
X437134Y-3855110D01*
X437134Y-3874160D01*
X460501Y-3874160D01*
X460501Y-3888384D01*
X475996Y-3888384D01*
X475996Y-3874160D01*
X533908Y-3874160D01*
X538175Y-3873906D01*
X542036Y-3873144D01*
X545541Y-3871823D01*
X548640Y-3870045D01*
X551383Y-3867861D01*
X553720Y-3865372D01*
X555701Y-3862527D01*
X557276Y-3859428D01*
X558596Y-3856126D01*
X559511Y-3852722D01*
X559968Y-3849166D01*
X560019Y-3843223D01*
X559663Y-3839413D01*
G37*
G36*
X434085Y-3903878D02*
G01*
X431749Y-3904081D01*
X429615Y-3904742D01*
X427685Y-3905859D01*
X425958Y-3907434D01*
X424535Y-3909263D01*
X423468Y-3911295D01*
X422859Y-3913479D01*
X422656Y-3915765D01*
X422859Y-3918254D01*
X423468Y-3920490D01*
X424535Y-3922572D01*
X425958Y-3924452D01*
X427685Y-3925976D01*
X429615Y-3927094D01*
X431749Y-3927754D01*
X434085Y-3927957D01*
X436321Y-3927754D01*
X438404Y-3927094D01*
X440385Y-3925976D01*
X442214Y-3924452D01*
X443636Y-3922572D01*
X444703Y-3920490D01*
X445312Y-3918254D01*
X445516Y-3915765D01*
X445312Y-3913479D01*
X444703Y-3911295D01*
X443636Y-3909263D01*
X442214Y-3907434D01*
X440385Y-3905859D01*
X438404Y-3904742D01*
X436321Y-3904081D01*
G37*
G36*
X460501Y-3906418D02*
G01*
X460501Y-3925468D01*
X558800Y-3925468D01*
X558800Y-3906418D01*
G37*
G36*
X460501Y-3951071D02*
G01*
X460501Y-3969918D01*
X476504Y-3969918D01*
X476504Y-3971137D01*
X473201Y-3973322D01*
X467410Y-3977944D01*
X465582Y-3979926D01*
X463854Y-3982262D01*
X462280Y-3984904D01*
X460959Y-3987901D01*
X459993Y-3991356D01*
X459423Y-3995521D01*
X475488Y-3995521D01*
X475742Y-3991508D01*
X476554Y-3987850D01*
X477926Y-3984548D01*
X479806Y-3981602D01*
X482193Y-3978859D01*
X484936Y-3976522D01*
X488137Y-3974541D01*
X491743Y-3972915D01*
X495604Y-3971594D01*
X499770Y-3970629D01*
X504240Y-3970070D01*
X509016Y-3969918D01*
X513943Y-3970070D01*
X518464Y-3970680D01*
X522681Y-3971594D01*
X526542Y-3972915D01*
X529894Y-3974642D01*
X532892Y-3976624D01*
X535482Y-3978960D01*
X537718Y-3981602D01*
X539394Y-3984650D01*
X540562Y-3988003D01*
X541274Y-3991610D01*
X541528Y-3995521D01*
X541274Y-3999687D01*
X540512Y-4003395D01*
X539242Y-4006799D01*
X537464Y-4009745D01*
X535228Y-4012539D01*
X532587Y-4014927D01*
X529488Y-4016959D01*
X526034Y-4018686D01*
X522224Y-4019905D01*
X518109Y-4020769D01*
X513689Y-4021277D01*
X509016Y-4021429D01*
X504443Y-4021277D01*
X500075Y-4020769D01*
X495909Y-4019905D01*
X491998Y-4018686D01*
X488391Y-4016959D01*
X485190Y-4014978D01*
X482447Y-4012641D01*
X480059Y-4009999D01*
X478078Y-4006951D01*
X476605Y-4003497D01*
X475792Y-3999687D01*
X475488Y-3995521D01*
X459423Y-3995521D01*
X459232Y-3999636D01*
X459638Y-4005427D01*
X460756Y-4010914D01*
X462686Y-4016095D01*
X465328Y-4020921D01*
X468579Y-4025290D01*
X472592Y-4029151D01*
X477215Y-4032504D01*
X482600Y-4035399D01*
X494842Y-4039412D01*
X509270Y-4040784D01*
X523748Y-4039412D01*
X535686Y-4035399D01*
X540715Y-4032504D01*
X545084Y-4029049D01*
X548843Y-4025137D01*
X551942Y-4020718D01*
X554278Y-4015943D01*
X555955Y-4010914D01*
X556920Y-4005529D01*
X557276Y-3999839D01*
X557123Y-3995521D01*
X556564Y-3991610D01*
X555701Y-3988155D01*
X554482Y-3985107D01*
X551434Y-3980129D01*
X549706Y-3978046D01*
X547878Y-3976268D01*
X544271Y-3973525D01*
X541020Y-3971442D01*
X541020Y-3970121D01*
X560324Y-3970121D01*
X565658Y-3970578D01*
X570230Y-3971899D01*
X574040Y-3974134D01*
X577088Y-3977284D01*
X579323Y-3981043D01*
X580898Y-3985310D01*
X581863Y-3990086D01*
X582168Y-3995318D01*
X581660Y-4002481D01*
X581050Y-4005529D01*
X580136Y-4008221D01*
X577596Y-4012641D01*
X574548Y-4016095D01*
X571550Y-4018635D01*
X568706Y-4020718D01*
X575310Y-4037228D01*
X578307Y-4035653D01*
X581152Y-4033824D01*
X583895Y-4031742D01*
X586486Y-4029354D01*
X588873Y-4026458D01*
X591058Y-4023207D01*
X592988Y-4019600D01*
X594614Y-4015587D01*
X595934Y-4011218D01*
X596900Y-4006342D01*
X597458Y-4001058D01*
X597662Y-3995318D01*
X597408Y-3989222D01*
X596696Y-3983482D01*
X595528Y-3978046D01*
X593852Y-3972915D01*
X591566Y-3968140D01*
X588772Y-3963873D01*
X585470Y-3960114D01*
X581660Y-3956913D01*
X577342Y-3954373D01*
X572465Y-3952544D01*
X567029Y-3951478D01*
X561086Y-3951071D01*
G37*
G36*
X3351885Y-5482844D02*
G01*
X3345535Y-5483250D01*
X3339592Y-5484571D01*
X3334105Y-5486704D01*
X3329025Y-5489702D01*
X3320542Y-5498388D01*
X3314293Y-5510276D01*
X3310483Y-5525058D01*
X3309213Y-5542534D01*
X3326739Y-5542534D01*
X3328466Y-5523280D01*
X3333597Y-5509260D01*
X3337255Y-5504129D01*
X3341471Y-5500471D01*
X3346399Y-5498287D01*
X3351885Y-5497576D01*
X3355695Y-5497931D01*
X3359200Y-5498896D01*
X3362451Y-5500573D01*
X3365347Y-5502910D01*
X3368090Y-5505754D01*
X3370529Y-5509260D01*
X3372561Y-5513374D01*
X3374237Y-5518150D01*
X3375609Y-5523382D01*
X3376523Y-5529173D01*
X3377133Y-5535574D01*
X3377285Y-5542534D01*
X3375609Y-5561787D01*
X3370427Y-5575808D01*
X3366820Y-5580938D01*
X3362502Y-5584596D01*
X3357524Y-5586780D01*
X3351885Y-5587492D01*
X3348126Y-5587187D01*
X3344621Y-5586222D01*
X3341370Y-5584647D01*
X3338423Y-5582412D01*
X3335782Y-5579465D01*
X3333496Y-5575960D01*
X3331464Y-5571845D01*
X3329787Y-5567172D01*
X3328466Y-5561838D01*
X3327501Y-5555945D01*
X3326942Y-5549493D01*
X3326739Y-5542534D01*
X3309213Y-5542534D01*
X3310483Y-5560161D01*
X3314293Y-5575046D01*
X3320542Y-5586933D01*
X3329025Y-5595620D01*
X3334004Y-5598617D01*
X3339439Y-5600852D01*
X3345434Y-5602173D01*
X3351885Y-5602732D01*
X3364433Y-5600954D01*
X3374999Y-5595620D01*
X3383330Y-5586933D01*
X3389477Y-5575046D01*
X3393287Y-5560212D01*
X3394557Y-5542534D01*
X3393287Y-5525058D01*
X3389477Y-5510276D01*
X3383330Y-5498388D01*
X3374999Y-5489702D01*
X3369970Y-5486704D01*
X3364433Y-5484571D01*
X3358387Y-5483250D01*
G37*
G36*
X2605379Y-5484368D02*
G01*
X2605379Y-5499354D01*
X2647035Y-5499354D01*
X2651912Y-5499658D01*
X2656128Y-5500573D01*
X2659684Y-5502046D01*
X2662529Y-5504180D01*
X2664764Y-5506770D01*
X2666339Y-5509615D01*
X2667304Y-5512866D01*
X2667609Y-5516372D01*
X2667457Y-5519064D01*
X2666949Y-5521604D01*
X2666034Y-5523890D01*
X2664815Y-5526024D01*
X2663291Y-5527954D01*
X2661513Y-5529630D01*
X2659481Y-5531104D01*
X2657195Y-5532374D01*
X2654757Y-5533390D01*
X2652115Y-5534101D01*
X2649423Y-5534507D01*
X2646527Y-5534660D01*
X2622905Y-5534660D01*
X2622905Y-5499354D01*
X2605379Y-5499354D01*
X2605379Y-5548376D01*
X2649067Y-5548376D01*
X2652420Y-5548528D01*
X2655570Y-5549087D01*
X2658516Y-5549950D01*
X2661259Y-5551170D01*
X2663698Y-5552592D01*
X2665780Y-5554268D01*
X2667609Y-5556250D01*
X2669133Y-5558536D01*
X2670352Y-5560872D01*
X2671267Y-5563311D01*
X2671775Y-5565800D01*
X2671927Y-5568442D01*
X2671572Y-5571947D01*
X2670556Y-5575147D01*
X2668778Y-5578043D01*
X2666339Y-5580634D01*
X2663240Y-5582869D01*
X2659176Y-5584444D01*
X2654198Y-5585409D01*
X2648305Y-5585714D01*
X2622905Y-5585714D01*
X2622905Y-5548376D01*
X2605379Y-5548376D01*
X2605379Y-5600700D01*
X2650083Y-5600700D01*
X2656535Y-5600446D01*
X2662377Y-5599684D01*
X2667558Y-5598414D01*
X2672181Y-5596636D01*
X2676347Y-5594400D01*
X2679903Y-5591810D01*
X2682798Y-5588812D01*
X2685135Y-5585460D01*
X2686913Y-5581802D01*
X2688183Y-5577890D01*
X2688945Y-5573776D01*
X2689199Y-5569458D01*
X2688996Y-5565038D01*
X2688336Y-5561025D01*
X2687218Y-5557316D01*
X2685643Y-5553964D01*
X2683764Y-5551068D01*
X2681579Y-5548528D01*
X2679192Y-5546242D01*
X2676499Y-5544312D01*
X2673705Y-5542737D01*
X2670860Y-5541568D01*
X2668016Y-5540857D01*
X2665069Y-5540502D01*
X2665069Y-5539486D01*
X2670251Y-5537657D01*
X2674975Y-5535168D01*
X2677160Y-5533542D01*
X2679039Y-5531612D01*
X2680716Y-5529478D01*
X2683306Y-5524449D01*
X2684221Y-5521553D01*
X2684729Y-5518353D01*
X2684881Y-5514848D01*
X2684627Y-5510631D01*
X2683865Y-5506669D01*
X2682595Y-5502910D01*
X2680817Y-5499354D01*
X2678531Y-5496102D01*
X2675737Y-5493207D01*
X2672435Y-5490616D01*
X2668625Y-5488432D01*
X2664307Y-5486654D01*
X2659430Y-5485384D01*
X2654046Y-5484622D01*
X2648051Y-5484368D01*
G37*
G36*
X3016605Y-5484368D02*
G01*
X3016605Y-5527548D01*
X3015589Y-5527548D01*
X3013760Y-5524550D01*
X3009747Y-5519470D01*
X3005937Y-5516422D01*
X3003651Y-5515102D01*
X3000959Y-5513882D01*
X2997809Y-5513019D01*
X2994355Y-5512460D01*
X2990443Y-5512308D01*
X2985363Y-5512663D01*
X2980537Y-5513628D01*
X2975965Y-5515305D01*
X2971647Y-5517642D01*
X2967736Y-5520588D01*
X2964230Y-5524195D01*
X2961233Y-5528360D01*
X2958693Y-5533136D01*
X2956610Y-5538368D01*
X2955086Y-5544108D01*
X2954172Y-5550408D01*
X2953878Y-5557012D01*
X2971139Y-5557012D01*
X2971292Y-5552795D01*
X2971800Y-5548833D01*
X2972562Y-5545074D01*
X2973679Y-5541518D01*
X2975102Y-5538266D01*
X2976880Y-5535371D01*
X2978912Y-5532780D01*
X2981299Y-5530596D01*
X2983992Y-5528919D01*
X2987040Y-5527751D01*
X2990342Y-5527040D01*
X2993999Y-5526786D01*
X2997657Y-5527040D01*
X3001010Y-5527751D01*
X3004007Y-5528919D01*
X3006699Y-5530596D01*
X3008985Y-5532678D01*
X3011017Y-5535168D01*
X3012795Y-5538012D01*
X3014319Y-5541264D01*
X3015437Y-5544718D01*
X3016250Y-5548528D01*
X3016707Y-5552592D01*
X3016859Y-5557012D01*
X3016707Y-5561482D01*
X3016250Y-5565648D01*
X3015437Y-5569559D01*
X3014319Y-5573268D01*
X3012795Y-5576519D01*
X3010966Y-5579364D01*
X3008884Y-5581853D01*
X3006445Y-5583936D01*
X3003804Y-5585714D01*
X3000806Y-5586984D01*
X2997555Y-5587746D01*
X2993999Y-5588000D01*
X2990443Y-5587746D01*
X2987141Y-5586984D01*
X2984093Y-5585714D01*
X2981299Y-5583936D01*
X2978912Y-5581700D01*
X2976880Y-5579110D01*
X2975102Y-5576112D01*
X2973679Y-5572760D01*
X2972562Y-5569204D01*
X2971800Y-5565394D01*
X2971292Y-5561330D01*
X2971139Y-5557012D01*
X2953878Y-5557012D01*
X2954172Y-5564124D01*
X2955036Y-5570423D01*
X2956458Y-5576163D01*
X2958439Y-5581396D01*
X2961081Y-5586171D01*
X2964129Y-5590336D01*
X2967532Y-5593943D01*
X2971393Y-5596890D01*
X2975762Y-5599328D01*
X2980385Y-5601106D01*
X2985262Y-5602122D01*
X2990443Y-5602478D01*
X2994202Y-5602325D01*
X2997657Y-5601766D01*
X3000705Y-5600903D01*
X3005734Y-5598363D01*
X3009646Y-5595315D01*
X3011271Y-5593588D01*
X3015589Y-5587238D01*
X3017113Y-5587238D01*
X3017113Y-5600700D01*
X3033623Y-5600700D01*
X3033623Y-5484368D01*
G37*
G36*
X3217519Y-5484368D02*
G01*
X3188563Y-5503418D01*
X3188563Y-5520182D01*
X3216503Y-5501894D01*
X3217011Y-5501894D01*
X3217011Y-5600700D01*
X3234791Y-5600700D01*
X3234791Y-5484368D01*
G37*
G36*
X2935579Y-5512054D02*
G01*
X2931871Y-5512308D01*
X2928366Y-5513070D01*
X2925013Y-5514340D01*
X2921863Y-5516118D01*
X2919171Y-5518353D01*
X2916885Y-5520944D01*
X2914954Y-5523941D01*
X2913481Y-5527294D01*
X2912719Y-5527294D01*
X2912719Y-5513324D01*
X2896209Y-5513324D01*
X2896209Y-5600700D01*
X2913227Y-5600700D01*
X2913227Y-5547360D01*
X2913430Y-5544616D01*
X2913938Y-5542026D01*
X2914802Y-5539536D01*
X2916021Y-5537200D01*
X2917444Y-5535168D01*
X2919171Y-5533339D01*
X2921152Y-5531713D01*
X2923387Y-5530342D01*
X2925775Y-5529224D01*
X2928366Y-5528411D01*
X2931109Y-5527954D01*
X2935325Y-5527802D01*
X2939135Y-5528056D01*
X2942945Y-5528818D01*
X2942945Y-5512562D01*
G37*
G36*
X2745587Y-5512308D02*
G01*
X2739593Y-5512663D01*
X2734005Y-5513679D01*
X2728772Y-5515457D01*
X2723997Y-5517896D01*
X2719679Y-5520994D01*
X2715869Y-5524652D01*
X2712567Y-5528868D01*
X2709773Y-5533644D01*
X2707690Y-5538927D01*
X2706166Y-5544718D01*
X2705252Y-5550865D01*
X2704947Y-5557520D01*
X2721965Y-5557520D01*
X2722118Y-5553405D01*
X2722626Y-5549442D01*
X2723388Y-5545683D01*
X2724505Y-5542026D01*
X2725978Y-5538673D01*
X2727756Y-5535676D01*
X2729890Y-5533085D01*
X2732379Y-5530850D01*
X2735122Y-5528970D01*
X2738221Y-5527598D01*
X2741726Y-5526786D01*
X2745587Y-5526532D01*
X2749397Y-5526786D01*
X2752852Y-5527598D01*
X2756001Y-5528970D01*
X2758795Y-5530850D01*
X2761183Y-5533085D01*
X2763266Y-5535676D01*
X2764993Y-5538673D01*
X2766415Y-5542026D01*
X2767533Y-5545683D01*
X2768346Y-5549442D01*
X2768803Y-5553405D01*
X2768955Y-5557520D01*
X2768803Y-5561634D01*
X2768346Y-5565495D01*
X2767533Y-5569254D01*
X2766415Y-5572760D01*
X2764993Y-5576112D01*
X2763266Y-5579110D01*
X2761183Y-5581700D01*
X2758795Y-5583936D01*
X2756001Y-5585815D01*
X2752852Y-5587187D01*
X2749397Y-5588000D01*
X2745587Y-5588254D01*
X2741726Y-5588000D01*
X2738221Y-5587187D01*
X2735122Y-5585815D01*
X2732379Y-5583936D01*
X2729890Y-5581700D01*
X2727756Y-5579110D01*
X2725978Y-5576112D01*
X2724505Y-5572760D01*
X2723388Y-5569254D01*
X2722626Y-5565546D01*
X2722118Y-5561634D01*
X2721965Y-5557520D01*
X2704947Y-5557520D01*
X2705252Y-5564022D01*
X2706166Y-5570169D01*
X2707690Y-5575858D01*
X2709773Y-5581142D01*
X2712567Y-5585917D01*
X2715869Y-5590184D01*
X2719679Y-5593791D01*
X2723997Y-5596890D01*
X2728772Y-5599328D01*
X2734005Y-5601106D01*
X2739593Y-5602122D01*
X2745587Y-5602478D01*
X2751531Y-5602122D01*
X2757017Y-5601055D01*
X2762199Y-5599328D01*
X2766923Y-5596890D01*
X2771241Y-5593791D01*
X2775051Y-5590184D01*
X2778353Y-5585917D01*
X2781147Y-5581142D01*
X2783382Y-5575858D01*
X2784957Y-5570169D01*
X2785922Y-5564022D01*
X2786227Y-5557520D01*
X2785922Y-5550865D01*
X2784957Y-5544718D01*
X2783382Y-5538927D01*
X2781147Y-5533644D01*
X2778353Y-5528868D01*
X2775051Y-5524652D01*
X2771241Y-5520994D01*
X2766923Y-5517896D01*
X2762199Y-5515457D01*
X2757017Y-5513679D01*
X2751531Y-5512663D01*
G37*
G36*
X2839821Y-5512308D02*
G01*
X2835859Y-5512460D01*
X2831947Y-5512866D01*
X2828239Y-5513578D01*
X2824581Y-5514594D01*
X2821178Y-5515914D01*
X2817926Y-5517489D01*
X2814929Y-5519470D01*
X2812135Y-5521706D01*
X2809544Y-5524347D01*
X2807258Y-5527344D01*
X2805328Y-5530799D01*
X2803753Y-5534660D01*
X2819755Y-5538216D01*
X2820873Y-5535980D01*
X2822295Y-5533847D01*
X2824175Y-5531764D01*
X2826359Y-5529834D01*
X2829102Y-5528157D01*
X2832303Y-5526989D01*
X2835859Y-5526278D01*
X2839821Y-5526024D01*
X2843784Y-5526278D01*
X2847136Y-5527040D01*
X2849981Y-5528310D01*
X2852267Y-5530088D01*
X2854198Y-5532323D01*
X2855518Y-5535015D01*
X2856331Y-5538165D01*
X2856585Y-5542026D01*
X2856484Y-5543448D01*
X2856026Y-5544718D01*
X2855315Y-5545734D01*
X2854299Y-5546598D01*
X2853029Y-5547207D01*
X2849473Y-5548071D01*
X2831439Y-5550306D01*
X2825343Y-5551474D01*
X2819450Y-5552897D01*
X2814116Y-5554929D01*
X2811627Y-5556250D01*
X2809341Y-5557774D01*
X2807258Y-5559552D01*
X2805430Y-5561584D01*
X2803753Y-5563870D01*
X2802534Y-5566460D01*
X2801670Y-5569356D01*
X2801162Y-5572556D01*
X2800975Y-5576316D01*
X2817723Y-5576316D01*
X2817876Y-5574131D01*
X2818333Y-5572201D01*
X2819044Y-5570474D01*
X2820009Y-5568950D01*
X2822956Y-5566460D01*
X2826613Y-5564632D01*
X2830880Y-5563514D01*
X2837992Y-5562295D01*
X2845562Y-5561330D01*
X2848813Y-5560720D01*
X2854198Y-5559145D01*
X2856585Y-5558028D01*
X2856433Y-5571693D01*
X2855976Y-5574131D01*
X2855163Y-5576519D01*
X2854045Y-5578856D01*
X2852521Y-5581040D01*
X2850692Y-5582970D01*
X2848610Y-5584698D01*
X2846171Y-5586222D01*
X2843631Y-5587441D01*
X2840786Y-5588304D01*
X2837688Y-5588863D01*
X2834233Y-5589016D01*
X2830728Y-5588812D01*
X2827578Y-5588203D01*
X2824784Y-5587136D01*
X2822295Y-5585714D01*
X2820314Y-5583986D01*
X2818892Y-5581853D01*
X2818028Y-5579262D01*
X2817723Y-5576316D01*
X2800975Y-5576316D01*
X2801213Y-5580227D01*
X2801975Y-5583986D01*
X2803245Y-5587441D01*
X2805023Y-5590540D01*
X2807106Y-5593283D01*
X2809544Y-5595670D01*
X2812338Y-5597753D01*
X2815437Y-5599430D01*
X2818942Y-5600852D01*
X2822651Y-5601919D01*
X2826461Y-5602528D01*
X2830423Y-5602732D01*
X2833979Y-5602579D01*
X2837230Y-5602173D01*
X2840228Y-5601462D01*
X2845308Y-5599379D01*
X2849524Y-5596839D01*
X2852826Y-5593689D01*
X2855366Y-5590438D01*
X2856331Y-5588762D01*
X2857093Y-5588762D01*
X2857093Y-5600700D01*
X2873603Y-5600700D01*
X2873603Y-5542788D01*
X2873400Y-5538216D01*
X2872790Y-5534101D01*
X2871774Y-5530443D01*
X2870301Y-5527294D01*
X2868574Y-5524398D01*
X2866593Y-5521909D01*
X2864358Y-5519724D01*
X2861919Y-5517896D01*
X2856484Y-5515305D01*
X2850743Y-5513578D01*
X2845104Y-5512612D01*
G37*
G36*
X3093313Y-5513324D02*
G01*
X3125063Y-5600700D01*
X3143097Y-5600700D01*
X3174847Y-5513324D01*
X3156559Y-5513324D01*
X3134461Y-5580634D01*
X3133699Y-5580634D01*
X3111601Y-5513324D01*
G37*
G36*
X3277717Y-5579110D02*
G01*
X3275431Y-5579313D01*
X3273298Y-5579922D01*
X3271367Y-5580989D01*
X3269589Y-5582412D01*
X3268167Y-5584139D01*
X3267151Y-5586120D01*
X3266490Y-5588203D01*
X3266287Y-5590540D01*
X3266490Y-5592724D01*
X3267151Y-5594807D01*
X3268167Y-5596686D01*
X3269589Y-5598414D01*
X3271367Y-5599836D01*
X3273298Y-5600903D01*
X3275431Y-5601512D01*
X3277717Y-5601716D01*
X3280664Y-5601309D01*
X3283305Y-5600192D01*
X3285591Y-5598414D01*
X3287369Y-5596128D01*
X3288537Y-5593435D01*
X3288893Y-5590540D01*
X3288690Y-5588203D01*
X3288080Y-5586120D01*
X3287064Y-5584139D01*
X3285591Y-5582412D01*
X3283864Y-5580989D01*
X3281984Y-5579922D01*
X3279952Y-5579313D01*
G37*
D10*
X4517138Y-1592071D02*
G01*
X4520440Y-1581657D01*
X4527552Y-1574800D01*
X4537966Y-1571244D01*
X4541268Y-1571244D01*
X4551682Y-1574800D01*
X4558540Y-1581657D01*
X4562096Y-1592071D01*
X4562096Y-1595628D01*
X4558540Y-1606042D01*
X4551682Y-1612900D01*
X4541268Y-1616455D01*
X4537966Y-1616455D01*
X4527552Y-1612900D01*
X4520440Y-1606042D01*
X4517138Y-1592071D01*
X4517138Y-1574800D01*
X4520440Y-1557528D01*
X4527552Y-1547113D01*
X4537966Y-1543557D01*
X4544824Y-1543557D01*
X4555238Y-1547113D01*
X4558540Y-1553971D01*
X4290824Y-1616455D02*
G01*
X4301238Y-1612900D01*
X4304540Y-1606042D01*
X4304540Y-1598929D01*
X4301238Y-1592071D01*
X4294126Y-1588770D01*
X4280410Y-1585213D01*
X4269996Y-1581657D01*
X4263138Y-1574800D01*
X4259582Y-1567942D01*
X4259582Y-1557528D01*
X4263138Y-1550670D01*
X4266440Y-1547113D01*
X4276854Y-1543557D01*
X4290824Y-1543557D01*
X4301238Y-1547113D01*
X4304540Y-1550670D01*
X4308096Y-1557528D01*
X4308096Y-1567942D01*
X4304540Y-1574800D01*
X4297682Y-1581657D01*
X4287268Y-1585213D01*
X4273552Y-1588770D01*
X4266440Y-1592071D01*
X4263138Y-1598929D01*
X4263138Y-1606042D01*
X4266440Y-1612900D01*
X4276854Y-1616455D01*
X4290824Y-1616455D01*
X4005582Y-1616455D02*
G01*
X4040126Y-1543557D01*
X4054096Y-1616455D02*
G01*
X4005582Y-1616455D01*
X3758440Y-1606042D02*
G01*
X3761996Y-1612900D01*
X3772410Y-1616455D01*
X3779268Y-1616455D01*
X3789682Y-1612900D01*
X3796540Y-1602486D01*
X3800096Y-1585213D01*
X3800096Y-1567942D01*
X3796540Y-1553971D01*
X3789682Y-1547113D01*
X3779268Y-1543557D01*
X3775966Y-1543557D01*
X3765552Y-1547113D01*
X3758440Y-1553971D01*
X3755138Y-1564386D01*
X3755138Y-1567942D01*
X3758440Y-1578355D01*
X3765552Y-1585213D01*
X3775966Y-1588770D01*
X3779268Y-1588770D01*
X3789682Y-1585213D01*
X3796540Y-1578355D01*
X3800096Y-1567942D01*
X3504440Y-1616455D02*
G01*
X3539238Y-1616455D01*
X3542540Y-1585213D01*
X3539238Y-1588770D01*
X3528824Y-1592071D01*
X3518410Y-1592071D01*
X3507996Y-1588770D01*
X3501138Y-1581657D01*
X3497582Y-1571244D01*
X3497582Y-1564386D01*
X3501138Y-1553971D01*
X3507996Y-1547113D01*
X3518410Y-1543557D01*
X3528824Y-1543557D01*
X3539238Y-1547113D01*
X3542540Y-1550670D01*
X3546096Y-1557528D01*
X3257552Y-1616455D02*
G01*
X3292096Y-1567942D01*
X3240026Y-1567942D01*
X3257552Y-1616455D02*
G01*
X3257552Y-1543557D01*
X3031238Y-1616455D02*
G01*
X2993138Y-1616455D01*
X3013966Y-1588770D01*
X3003552Y-1588770D01*
X2996440Y-1585213D01*
X2993138Y-1581657D01*
X2989582Y-1571244D01*
X2989582Y-1564386D01*
X2993138Y-1553971D01*
X2999996Y-1547113D01*
X3010410Y-1543557D01*
X3020824Y-1543557D01*
X3031238Y-1547113D01*
X3034540Y-1550670D01*
X3038096Y-1557528D01*
X2776476Y-1630679D02*
G01*
X2776476Y-1633220D01*
X2773936Y-1638300D01*
X2771396Y-1640839D01*
X2766316Y-1643379D01*
X2756156Y-1643379D01*
X2751076Y-1640839D01*
X2748536Y-1638300D01*
X2745996Y-1633220D01*
X2745996Y-1628139D01*
X2748536Y-1623060D01*
X2753616Y-1615439D01*
X2779016Y-1590039D01*
X2743456Y-1590039D01*
X2555496Y-1605279D02*
G01*
X2558036Y-1610360D01*
X2563116Y-1615439D01*
X2568196Y-1617979D01*
X2578356Y-1617979D01*
X2583436Y-1615439D01*
X2588516Y-1610360D01*
X2591056Y-1605279D01*
X2593596Y-1597660D01*
X2593596Y-1584960D01*
X2591056Y-1577339D01*
X2588516Y-1572260D01*
X2583436Y-1567179D01*
X2578356Y-1564639D01*
X2568196Y-1564639D01*
X2563116Y-1567179D01*
X2558036Y-1572260D01*
X2555496Y-1577339D01*
X2555496Y-1584960D01*
X2568196Y-1584960D02*
G01*
X2555496Y-1584960D01*
X2538732Y-1617979D02*
G01*
X2538732Y-1564639D01*
X2538732Y-1617979D02*
G01*
X2503172Y-1564639D01*
X2503172Y-1617979D02*
G01*
X2503172Y-1564639D01*
X2486408Y-1617979D02*
G01*
X2486408Y-1564639D01*
X2486408Y-1617979D02*
G01*
X2468628Y-1617979D01*
X2461008Y-1615439D01*
X2455928Y-1610360D01*
X2453388Y-1605279D01*
X2450848Y-1597660D01*
X2450848Y-1584960D01*
X2453388Y-1577339D01*
X2455928Y-1572260D01*
X2461008Y-1567179D01*
X2468628Y-1564639D01*
X2486408Y-1564639D01*
X2301496Y-1605279D02*
G01*
X2304036Y-1610360D01*
X2309116Y-1615439D01*
X2314196Y-1617979D01*
X2324356Y-1617979D01*
X2329436Y-1615439D01*
X2334516Y-1610360D01*
X2337056Y-1605279D01*
X2339596Y-1597660D01*
X2339596Y-1584960D01*
X2337056Y-1577339D01*
X2334516Y-1572260D01*
X2329436Y-1567179D01*
X2324356Y-1564639D01*
X2314196Y-1564639D01*
X2309116Y-1567179D01*
X2304036Y-1572260D01*
X2301496Y-1577339D01*
X2301496Y-1584960D01*
X2314196Y-1584960D02*
G01*
X2301496Y-1584960D01*
X2284732Y-1617979D02*
G01*
X2284732Y-1564639D01*
X2284732Y-1617979D02*
G01*
X2249172Y-1564639D01*
X2249172Y-1617979D02*
G01*
X2249172Y-1564639D01*
X2232408Y-1617979D02*
G01*
X2232408Y-1564639D01*
X2232408Y-1617979D02*
G01*
X2214628Y-1617979D01*
X2207008Y-1615439D01*
X2201928Y-1610360D01*
X2199388Y-1605279D01*
X2196848Y-1597660D01*
X2196848Y-1584960D01*
X2199388Y-1577339D01*
X2201928Y-1572260D01*
X2207008Y-1567179D01*
X2214628Y-1564639D01*
X2232408Y-1564639D01*
X2085596Y-1617979D02*
G01*
X2085596Y-1564639D01*
X2085596Y-1617979D02*
G01*
X2062736Y-1617979D01*
X2055116Y-1615439D01*
X2052576Y-1612900D01*
X2050036Y-1607820D01*
X2050036Y-1602739D01*
X2052576Y-1597660D01*
X2055116Y-1595120D01*
X2062736Y-1592579D01*
X2085596Y-1592579D01*
X2067816Y-1592579D02*
G01*
X2050036Y-1564639D01*
X2033272Y-1617979D02*
G01*
X1997712Y-1564639D01*
X1997712Y-1617979D02*
G01*
X2033272Y-1564639D01*
X1980948Y-1617979D02*
G01*
X1980948Y-1564639D01*
X1813816Y-1617979D02*
G01*
X1813816Y-1564639D01*
X1831596Y-1617979D02*
G01*
X1796036Y-1617979D01*
X1779272Y-1617979D02*
G01*
X1743712Y-1564639D01*
X1743712Y-1617979D02*
G01*
X1779272Y-1564639D01*
X1711708Y-1617979D02*
G01*
X1716788Y-1615439D01*
X1721868Y-1610360D01*
X1724408Y-1605279D01*
X1726948Y-1597660D01*
X1726948Y-1584960D01*
X1724408Y-1577339D01*
X1721868Y-1572260D01*
X1716788Y-1567179D01*
X1711708Y-1564639D01*
X1701548Y-1564639D01*
X1696468Y-1567179D01*
X1691388Y-1572260D01*
X1688848Y-1577339D01*
X1686308Y-1584960D01*
X1686308Y-1597660D01*
X1688848Y-1605279D01*
X1691388Y-1610360D01*
X1696468Y-1615439D01*
X1701548Y-1617979D01*
X1711708Y-1617979D01*
X1831596Y-513079D02*
G01*
X1831596Y-459739D01*
X1831596Y-513079D02*
G01*
X1808736Y-513079D01*
X1801116Y-510539D01*
X1798576Y-508000D01*
X1796036Y-502920D01*
X1796036Y-497839D01*
X1798576Y-492760D01*
X1801116Y-490220D01*
X1808736Y-487679D01*
X1831596Y-487679D01*
X1813816Y-487679D02*
G01*
X1796036Y-459739D01*
X1758952Y-513079D02*
G01*
X1779272Y-459739D01*
X1758952Y-513079D02*
G01*
X1738632Y-459739D01*
X1771652Y-477520D02*
G01*
X1746252Y-477520D01*
X1721868Y-513079D02*
G01*
X1709168Y-459739D01*
X1696468Y-513079D02*
G01*
X1709168Y-459739D01*
X1696468Y-513079D02*
G01*
X1683768Y-459739D01*
X1671068Y-513079D02*
G01*
X1683768Y-459739D01*
X2022096Y-500379D02*
G01*
X2024636Y-505460D01*
X2029716Y-510539D01*
X2034796Y-513079D01*
X2044956Y-513079D01*
X2050036Y-510539D01*
X2055116Y-505460D01*
X2057656Y-500379D01*
X2060196Y-492760D01*
X2060196Y-480060D01*
X2057656Y-472439D01*
X2055116Y-467360D01*
X2050036Y-462279D01*
X2044956Y-459739D01*
X2034796Y-459739D01*
X2029716Y-462279D01*
X2024636Y-467360D01*
X2022096Y-472439D01*
X2022096Y-480060D01*
X2034796Y-480060D02*
G01*
X2022096Y-480060D01*
X2005332Y-513079D02*
G01*
X2005332Y-459739D01*
X2005332Y-513079D02*
G01*
X1969772Y-459739D01*
X1969772Y-513079D02*
G01*
X1969772Y-459739D01*
X1953008Y-513079D02*
G01*
X1953008Y-459739D01*
X1953008Y-513079D02*
G01*
X1935228Y-513079D01*
X1927608Y-510539D01*
X1922528Y-505460D01*
X1919988Y-500379D01*
X1917448Y-492760D01*
X1917448Y-480060D01*
X1919988Y-472439D01*
X1922528Y-467360D01*
X1927608Y-462279D01*
X1935228Y-459739D01*
X1953008Y-459739D01*
X2314196Y-513079D02*
G01*
X2314196Y-459739D01*
X2314196Y-513079D02*
G01*
X2291336Y-513079D01*
X2283716Y-510539D01*
X2281176Y-508000D01*
X2278636Y-502920D01*
X2278636Y-497839D01*
X2281176Y-492760D01*
X2283716Y-490220D01*
X2291336Y-487679D01*
X2314196Y-487679D01*
X2296416Y-487679D02*
G01*
X2278636Y-459739D01*
X2226312Y-505460D02*
G01*
X2231392Y-510539D01*
X2239012Y-513079D01*
X2249172Y-513079D01*
X2256792Y-510539D01*
X2261872Y-505460D01*
X2261872Y-500379D01*
X2259332Y-495300D01*
X2256792Y-492760D01*
X2251712Y-490220D01*
X2236472Y-485139D01*
X2231392Y-482600D01*
X2228852Y-480060D01*
X2226312Y-474979D01*
X2226312Y-467360D01*
X2231392Y-462279D01*
X2239012Y-459739D01*
X2249172Y-459739D01*
X2256792Y-462279D01*
X2261872Y-467360D01*
X2191768Y-513079D02*
G01*
X2191768Y-459739D01*
X2209548Y-513079D02*
G01*
X2173988Y-513079D01*
X2568196Y-513079D02*
G01*
X2547876Y-459739D01*
X2527556Y-513079D02*
G01*
X2547876Y-459739D01*
X2472692Y-500379D02*
G01*
X2475232Y-505460D01*
X2480312Y-510539D01*
X2485392Y-513079D01*
X2495552Y-513079D01*
X2500632Y-510539D01*
X2505712Y-505460D01*
X2508252Y-500379D01*
X2510792Y-492760D01*
X2510792Y-480060D01*
X2508252Y-472439D01*
X2505712Y-467360D01*
X2500632Y-462279D01*
X2495552Y-459739D01*
X2485392Y-459739D01*
X2480312Y-462279D01*
X2475232Y-467360D01*
X2472692Y-472439D01*
X2417828Y-500379D02*
G01*
X2420368Y-505460D01*
X2425448Y-510539D01*
X2430528Y-513079D01*
X2440688Y-513079D01*
X2445768Y-510539D01*
X2450848Y-505460D01*
X2453388Y-500379D01*
X2455928Y-492760D01*
X2455928Y-480060D01*
X2453388Y-472439D01*
X2450848Y-467360D01*
X2445768Y-462279D01*
X2440688Y-459739D01*
X2430528Y-459739D01*
X2425448Y-462279D01*
X2420368Y-467360D01*
X2417828Y-472439D01*
X2794510Y-524255D02*
G01*
X2822196Y-451357D01*
X2794510Y-524255D02*
G01*
X2766824Y-451357D01*
X2811782Y-475742D02*
G01*
X2777238Y-475742D01*
X2737106Y-524255D02*
G01*
X2699006Y-524255D01*
X2719580Y-496570D01*
X2709166Y-496570D01*
X2702308Y-493013D01*
X2699006Y-489457D01*
X2695450Y-479044D01*
X2695450Y-472186D01*
X2699006Y-461771D01*
X2705864Y-454913D01*
X2716278Y-451357D01*
X2726692Y-451357D01*
X2737106Y-454913D01*
X2740408Y-458470D01*
X2743964Y-465328D01*
X3048510Y-524255D02*
G01*
X3076196Y-451357D01*
X3048510Y-524255D02*
G01*
X3020824Y-451357D01*
X3065782Y-475742D02*
G01*
X3031238Y-475742D01*
X2994408Y-506729D02*
G01*
X2994408Y-510286D01*
X2991106Y-517144D01*
X2987550Y-520700D01*
X2980692Y-524255D01*
X2966722Y-524255D01*
X2959864Y-520700D01*
X2956308Y-517144D01*
X2953006Y-510286D01*
X2953006Y-503428D01*
X2956308Y-496570D01*
X2963166Y-486155D01*
X2997964Y-451357D01*
X2949450Y-451357D01*
X3277110Y-524255D02*
G01*
X3304796Y-451357D01*
X3277110Y-524255D02*
G01*
X3249424Y-451357D01*
X3294382Y-475742D02*
G01*
X3259838Y-475742D01*
X3226564Y-510286D02*
G01*
X3219706Y-513842D01*
X3209292Y-524255D01*
X3209292Y-451357D01*
X3531110Y-524255D02*
G01*
X3558796Y-451357D01*
X3531110Y-524255D02*
G01*
X3503424Y-451357D01*
X3548382Y-475742D02*
G01*
X3513838Y-475742D01*
X3459736Y-524255D02*
G01*
X3470150Y-520700D01*
X3477008Y-510286D01*
X3480564Y-493013D01*
X3480564Y-482600D01*
X3477008Y-465328D01*
X3470150Y-454913D01*
X3459736Y-451357D01*
X3452878Y-451357D01*
X3442464Y-454913D01*
X3435606Y-465328D01*
X3432050Y-482600D01*
X3432050Y-493013D01*
X3435606Y-510286D01*
X3442464Y-520700D01*
X3452878Y-524255D01*
X3459736Y-524255D01*
X3812796Y-510286D02*
G01*
X3805938Y-513842D01*
X3795524Y-524255D01*
X3795524Y-451357D01*
X3731008Y-524255D02*
G01*
X3765806Y-524255D01*
X3769108Y-493013D01*
X3765806Y-496570D01*
X3755392Y-499871D01*
X3744978Y-499871D01*
X3734564Y-496570D01*
X3727706Y-489457D01*
X3724150Y-479044D01*
X3724150Y-472186D01*
X3727706Y-461771D01*
X3734564Y-454913D01*
X3744978Y-451357D01*
X3755392Y-451357D01*
X3765806Y-454913D01*
X3769108Y-458470D01*
X3772664Y-465328D01*
X4066796Y-510286D02*
G01*
X4059938Y-513842D01*
X4049524Y-524255D01*
X4049524Y-451357D01*
X3991866Y-524255D02*
G01*
X4026664Y-475742D01*
X3974594Y-475742D01*
X3991866Y-524255D02*
G01*
X3991866Y-451357D01*
X4346196Y-510286D02*
G01*
X4339338Y-513842D01*
X4328924Y-524255D01*
X4328924Y-451357D01*
X4264408Y-513842D02*
G01*
X4267964Y-520700D01*
X4278378Y-524255D01*
X4285236Y-524255D01*
X4295650Y-520700D01*
X4302508Y-510286D01*
X4306064Y-493013D01*
X4306064Y-475742D01*
X4302508Y-461771D01*
X4295650Y-454913D01*
X4285236Y-451357D01*
X4281680Y-451357D01*
X4271266Y-454913D01*
X4264408Y-461771D01*
X4261106Y-472186D01*
X4261106Y-475742D01*
X4264408Y-486155D01*
X4271266Y-493013D01*
X4281680Y-496570D01*
X4285236Y-496570D01*
X4295650Y-493013D01*
X4302508Y-486155D01*
X4306064Y-475742D01*
X4574796Y-510286D02*
G01*
X4567938Y-513842D01*
X4557524Y-524255D01*
X4557524Y-451357D01*
X4513836Y-524255D02*
G01*
X4524250Y-520700D01*
X4531108Y-510286D01*
X4534664Y-493013D01*
X4534664Y-482600D01*
X4531108Y-465328D01*
X4524250Y-454913D01*
X4513836Y-451357D01*
X4506978Y-451357D01*
X4496564Y-454913D01*
X4489706Y-465328D01*
X4486150Y-482600D01*
X4486150Y-493013D01*
X4489706Y-510286D01*
X4496564Y-520700D01*
X4506978Y-524255D01*
X4513836Y-524255D01*
X1675637Y-1206500D02*
G01*
X1727707Y-1206500D01*
X1738121Y-1202944D01*
X1744979Y-1196086D01*
X1748536Y-1185671D01*
X1748536Y-1178813D01*
X1744979Y-1168400D01*
X1738121Y-1161542D01*
X1727707Y-1157986D01*
X1675637Y-1157986D01*
X1686052Y-1086612D02*
G01*
X1679194Y-1093470D01*
X1675637Y-1103884D01*
X1675637Y-1117854D01*
X1679194Y-1128268D01*
X1686052Y-1135126D01*
X1692910Y-1135126D01*
X1700021Y-1131570D01*
X1703323Y-1128268D01*
X1706879Y-1121410D01*
X1713737Y-1100581D01*
X1717294Y-1093470D01*
X1720850Y-1090168D01*
X1727707Y-1086612D01*
X1738121Y-1086612D01*
X1744979Y-1093470D01*
X1748536Y-1103884D01*
X1748536Y-1117854D01*
X1744979Y-1128268D01*
X1738121Y-1135126D01*
X1675637Y-1063752D02*
G01*
X1748536Y-1063752D01*
X1675637Y-1063752D02*
G01*
X1675637Y-1032510D01*
X1679194Y-1022350D01*
X1682750Y-1018794D01*
X1689607Y-1015237D01*
X1696465Y-1015237D01*
X1703323Y-1018794D01*
X1706879Y-1022350D01*
X1710436Y-1032510D01*
X1710436Y-1063752D02*
G01*
X1710436Y-1032510D01*
X1713737Y-1022350D01*
X1717294Y-1018794D01*
X1724152Y-1015237D01*
X1734565Y-1015237D01*
X1741423Y-1018794D01*
X1744979Y-1022350D01*
X1748536Y-1032510D01*
X1748536Y-1063752D01*
X1717294Y-992378D02*
G01*
X1717294Y-930147D01*
X1692910Y-855218D02*
G01*
X1686052Y-858773D01*
X1679194Y-865631D01*
X1675637Y-872489D01*
X1675637Y-886460D01*
X1679194Y-893318D01*
X1686052Y-900429D01*
X1692910Y-903731D01*
X1703323Y-907287D01*
X1720850Y-907287D01*
X1731010Y-903731D01*
X1738121Y-900429D01*
X1744979Y-893318D01*
X1748536Y-886460D01*
X1748536Y-872489D01*
X1744979Y-865631D01*
X1738121Y-858773D01*
X1731010Y-855218D01*
D11*
X1348996Y-1930400D02*
G01*
X4650996Y-1930400D01*
X4650996Y-152400D01*
X1348996Y-152400D01*
X1348996Y-1930400D01*
D12*
X3589995Y-3699984D02*
G01*
X2409997Y-3699982D01*
X2720596Y-2998383D02*
G01*
X3279396Y-2998383D01*
X2409997Y-2499982D02*
G01*
X2409997Y-2882803D01*
X2409997Y-3317163D02*
G01*
X2409997Y-3699982D01*
X3589995Y-3699982D02*
G01*
X3589995Y-3317171D01*
X3589995Y-2882795D02*
G01*
X3589995Y-2499982D01*
X3478804Y-2896783D02*
G01*
X3397506Y-2896783D01*
X3478804Y-3303183D02*
G01*
X3397506Y-3303183D01*
X2409997Y-2499982D02*
G01*
X2409997Y-2882803D01*
X2409997Y-3317163D02*
G01*
X2409997Y-3699982D01*
X2594866Y-2896783D02*
G01*
X2521214Y-2896783D01*
X2521214Y-3303183D02*
G01*
X2618996Y-3303183D01*
X2409997Y-2499982D02*
G01*
X2693418Y-2499982D01*
X2798574Y-2499982D02*
G01*
X3201418Y-2499982D01*
X3306574Y-2499982D02*
G01*
X3589995Y-2499982D01*
G75*
G01*
X3177797Y-2998384D02*
G02*
X2822197Y-2998384I-177800J-99403D01*
G75*
G01
X3863594Y-1803400D02*
G03X3863594Y-1803400I-101600J0D01*
G75*
G01
X3609594Y-1803400D02*
G03X3609594Y-1803400I-101600J0D01*
G75*
G01
X3101594Y-1803400D02*
G03X3101594Y-1803400I-101600J0D01*
G75*
G01
X4625594Y-1803400D02*
G03X4625594Y-1803400I-101600J0D01*
G75*
G01
X4625594Y-279400D02*
G03X4625594Y-279400I-101600J0D01*
G75*
G01
X3432531Y-3099994D02*
G03X3432531Y-3099994I-432537J0D01*
G75*
G01
X3335274Y-3099994D02*
G03X3335274Y-3099994I-335280J0D01*
G75*
G01
X3304794Y-3099994D02*
G03X3304794Y-3099994I-304800J0D01*
X1999995Y-4999989D02*
G01*
X3999991Y-4999989D01*
X3999991Y-5350002D01*
X1999995Y-5350002D01*
X1999995Y-4999989D01*
M02*
